<?xml version="1.0" encoding="UTF-8"?>
<svg version="1.1" xmlns="http://www.w3.org/2000/svg" width="1536" height="2048">
<path d="M0 0 C8.48660065 8.41723219 16.32521296 16.98060635 23.31591797 26.66943359 C24.41592326 28.17222454 25.51619982 29.67481695 26.61669922 31.17724609 C29.88062638 35.65284209 33.10402071 40.15641535 36.31591797 44.66943359 C37.37166016 46.14476562 37.37166016 46.14476562 38.44873047 47.64990234 C53.30403789 68.60054891 64.91702572 91.70957954 76.31591797 114.66943359 C83.98413769 106.28160401 83.98413769 106.28160401 91.45263672 97.71630859 C96.67846349 91.97556808 102.12571623 87.00330939 108.44091797 82.48193359 C109.60119507 81.65109253 109.60119507 81.65109253 110.78491211 80.8034668 C141.81511873 59.01024522 176.723351 47.01966455 214.69873047 45.84521484 C218.09914734 45.78677561 218.09914734 45.78677561 220.49023438 45.16894531 C224.38509064 44.48043003 228.1958881 44.50727383 232.14404297 44.50146484 C233.02487045 44.49723007 233.90569794 44.4929953 234.81321716 44.4886322 C237.73083111 44.47863544 240.64828963 44.47874264 243.56591797 44.48193359 C244.572565 44.48253784 245.57921204 44.48314209 246.61636353 44.48376465 C346.29090856 44.64442418 346.29090856 44.64442418 359.31591797 57.66943359 C359.31591797 58.32943359 359.31591797 58.98943359 359.31591797 59.66943359 C360.15251953 59.91822266 360.98912109 60.16701172 361.85107422 60.42333984 C379.53621926 66.78361185 394.96822856 79.78759678 408.31591797 92.66943359 C409.29625 93.58982422 409.29625 93.58982422 410.29638672 94.52880859 C414.53064362 98.59834611 418.1849362 103.07760081 421.86279297 107.64990234 C424.00870546 110.29128826 426.19514616 112.88503761 428.41088867 115.46728516 C440.9693429 130.12281576 451.84846873 145.8594515 461.31591797 162.66943359 C461.98492046 163.84536755 462.65420486 165.02114115 463.32373047 166.19677734 C465.24969133 169.58863039 467.15474385 172.99178472 469.05175781 176.39990234 C469.90394959 177.92983181 470.75849394 179.45845292 471.61523438 180.98583984 C475.26485944 187.50350057 478.81779912 194.06926311 482.31591797 200.66943359 C482.81209625 201.60483978 482.81209625 201.60483978 483.31829834 202.55914307 C517.60962622 267.35601709 522.29144284 336.1940741 501.31591797 406.66943359 C496.54538482 420.91002031 489.86027877 436.25732361 477.74560547 445.66552734 C469.66607163 452.32919432 464.87588164 463.1731826 459.97515869 472.19400024 C453.88726124 483.39529563 447.47497027 493.8437199 439.31591797 503.66943359 C438.8417041 504.24822266 438.36749023 504.82701172 437.87890625 505.42333984 C430.41007441 514.51715757 422.63768848 523.34766308 414.31591797 531.66943359 C413.04115149 533.12433012 411.77075769 534.58306318 410.50341797 536.04443359 C407.37399631 539.58838685 404.12397766 542.73519999 400.51904297 545.78662109 C397.87653703 548.04493291 395.31749693 550.38503072 392.75341797 552.73193359 C380.73051721 563.66943359 380.73051721 563.66943359 378.31591797 563.66943359 C378.31591797 564.32943359 378.31591797 564.98943359 378.31591797 565.66943359 C376.80804636 567.04434658 375.23052036 568.34307821 373.62841797 569.60693359 C372.61779297 570.41517578 371.60716797 571.22341797 370.56591797 572.05615234 C370.02966797 572.48460449 369.49341797 572.91305664 368.94091797 573.35449219 C366.2958739 575.49484786 363.71528134 577.70944566 361.12841797 579.91943359 C344.48319785 594.06649257 327.44169887 607.47032646 309.31591797 619.66943359 C308.68927246 620.09224609 308.06262695 620.51505859 307.41699219 620.95068359 C301.01629179 625.26386943 294.57729946 629.51045847 288.078125 633.67382812 C269.91631294 645.32112227 252.62172215 658.06025065 235.87060547 671.65380859 C235.08943359 672.27771484 234.30826172 672.90162109 233.50341797 673.54443359 C232.4728125 674.37587891 232.4728125 674.37587891 231.42138672 675.22412109 C229.31591797 676.66943359 229.31591797 676.66943359 226.99951172 677.39599609 C222.81951754 679.37951589 220.23908354 682.75309073 217.19091797 686.16943359 C204.17607122 700.34879985 185.70927483 719.38107012 165.31591797 721.66943359 C158.6492513 719.33610026 158.6492513 719.33610026 157.31591797 716.66943359 C157.05794222 712.71380538 157.22151608 710.07283666 159.31591797 706.66943359 C155.2921432 706.21784318 155.2921432 706.21784318 153.04638672 708.75927734 C152.20720703 709.69900391 151.36802734 710.63873047 150.50341797 711.60693359 C144.75781455 717.72903801 138.31536657 721.66266037 131.01855469 725.70556641 C128.72782187 727.00235637 126.53035014 728.43468598 124.31591797 729.85693359 C113.13614419 736.490882 102.18889941 739.6103798 89.31591797 740.66943359 C89.47044434 741.66716797 89.6249707 742.66490234 89.78417969 743.69287109 C90.33452734 747.55292321 90.59766965 751.40100397 90.82373047 755.29443359 C90.92410009 756.82576225 91.02571485 758.35700967 91.12841797 759.88818359 C91.28368873 762.21724508 91.43418242 764.54567477 91.56103516 766.87646484 C93.37763212 799.60427565 101.72746195 831.96381063 109.31591797 863.73193359 C117.67065577 898.73597684 124.45566948 933.81128139 129.90527344 969.38842773 C131.62934553 980.58951422 133.55084206 991.57206972 136.64724731 1002.48576355 C139.93177514 1014.06820496 139.93177514 1014.06820496 138.06591797 1018.91943359 C135.21065481 1023.4062757 135.21065481 1023.4062757 133.31591797 1024.66943359 C130.56591797 1025.23193359 130.56591797 1025.23193359 127.31591797 1024.66943359 C122.35690975 1021.3316396 119.06648741 1017.16401055 115.50341797 1012.41943359 C106.42130035 1000.34804863 95.39070496 991.57532008 83.31591797 982.66943359 C82.57889648 982.12448242 81.841875 981.57953125 81.08251953 981.01806641 C76.83955868 977.88442569 72.58362936 974.76927054 68.31591797 971.66943359 C64.83620489 973.18235232 62.40600461 975.22706688 59.62841797 977.79443359 C56.33336997 980.82297035 53.01359975 983.8046788 49.62841797 986.73193359 C46.13324075 989.82853797 43.07422571 993.10764707 40.06201172 996.66943359 C38.22974757 998.76813437 36.30274107 1000.71693181 34.31591797 1002.66943359 C29.53370271 1007.38677384 25.10476481 1012.34876742 21.00341797 1017.66943359 C20.44654297 1018.32943359 19.88966797 1018.98943359 19.31591797 1019.66943359 C18.65591797 1019.66943359 17.99591797 1019.66943359 17.31591797 1019.66943359 C16.92762817 1020.53665039 16.92762817 1020.53665039 16.53149414 1021.42138672 C14.29157633 1025.56381758 10.83823336 1028.75990922 7.62841797 1032.16943359 C6.58524414 1033.30832031 6.58524414 1033.30832031 5.52099609 1034.47021484 C1.43361457 1038.8285619 -2.23249727 1042.1610357 -7.68408203 1044.66943359 C-11.03548459 1044.60498354 -12.82664921 1044.31989987 -15.49658203 1042.29443359 C-25.35087285 1028.80961458 -19.96109736 993.82787867 -19.91980147 977.28003335 C-19.91083637 972.9093623 -19.91278191 968.5386929 -19.91316223 964.16801453 C-19.91223363 956.84026266 -19.90365928 949.51255288 -19.88989258 942.18481445 C-19.87415819 933.78003997 -19.86889563 925.37531133 -19.86962813 916.97052318 C-19.87030973 907.91908615 -19.8633382 898.86766616 -19.85418153 889.81623435 C-19.85207674 887.2518461 -19.85134405 884.6874607 -19.85094261 882.12307167 C-19.8459495 865.47621816 -19.79841312 848.86183543 -18.90646362 832.23318481 C-18.5523198 825.56719777 -18.57264556 818.90611563 -18.62158203 812.23193359 C-18.62834961 810.38438477 -18.62834961 810.38438477 -18.63525391 808.49951172 C-18.6467069 805.55609255 -18.66290208 802.61279581 -18.68408203 799.66943359 C-19.21485352 800.05832764 -19.745625 800.44722168 -20.29248047 800.84790039 C-25.93651508 804.81770131 -31.39370657 807.3494166 -37.93408203 809.48193359 C-38.80548828 809.78035156 -39.67689453 810.07876953 -40.57470703 810.38623047 C-51.49379795 814.07308815 -64.66410351 816.21947531 -75.90283203 812.64599609 C-78.45178281 811.18599581 -80.50703265 809.63933835 -82.68408203 807.66943359 C-83.45751953 806.99267578 -84.23095703 806.31591797 -85.02783203 805.61865234 C-91.99701231 799.07923818 -101.07331102 789.51228857 -101.85595703 779.46240234 C-101.86948972 777.53061044 -101.78561725 775.59860277 -101.68408203 773.66943359 C-89.63086277 775.860928 -82.16152641 783.28771645 -74.68408203 792.66943359 C-71.64149297 797.15489995 -69.07457656 801.8109748 -66.68408203 806.66943359 C-67.01408203 805.96818359 -67.34408203 805.26693359 -67.68408203 804.54443359 C-69.07296636 800.55139116 -69.27529412 797.23425878 -67.76611328 793.23974609 C-67.34716797 792.43279297 -66.92822266 791.62583984 -66.49658203 790.79443359 C-64.36236095 786.36503063 -62.75627921 781.93955403 -61.37158203 777.23193359 C-57.24719252 763.45687078 -51.70894341 750.13367718 -45.21020508 737.31225586 C-43.1410245 733.12178357 -41.65120327 729.4368539 -41.68408203 724.66943359 C-43.22461539 722.28022317 -44.55152836 720.60338999 -46.49658203 718.60693359 C-47.52057046 717.47945522 -48.53998092 716.347805 -49.55517578 715.21240234 C-50.07708496 714.63280762 -50.59899414 714.05321289 -51.13671875 713.45605469 C-57.61067903 705.98107183 -63.24944956 697.4920182 -67.68408203 688.66943359 C-73.94898833 696.02455643 -78.74965559 704.59353466 -83.86328125 712.76220703 C-85.00382068 714.5832775 -86.14809203 716.40202185 -87.29785156 718.21728516 C-117.27316639 765.64841497 -132.97299897 820.50681806 -145.19580078 874.78662109 C-153.90683727 913.44941786 -163.23440651 951.52644722 -177.56689453 988.53271484 C-180.95483314 997.30312019 -183.16077015 1005.40907489 -184.09814453 1014.75927734 C-184.17516602 1015.47728516 -184.2521875 1016.19529297 -184.33154297 1016.93505859 C-184.47991736 1018.35130172 -184.61159647 1019.76942345 -184.72412109 1021.18896484 C-185.06511612 1024.52313848 -185.49865932 1026.43699701 -187.60986328 1029.08349609 C-190.15010864 1031.02575526 -191.47474088 1031.59479775 -194.68408203 1031.66943359 C-200.85653962 1030.09826257 -202.85768792 1027.39959998 -206.21411133 1022.16259766 C-208.43584551 1018.39439478 -210.19659868 1014.51825059 -211.87158203 1010.48193359 C-212.24686035 1009.58958008 -212.62213867 1008.69722656 -213.00878906 1007.77783203 C-221.35397377 987.62252283 -228.39001878 966.95933756 -235.15625 946.23095703 C-235.37819534 945.55402802 -235.60014069 944.877099 -235.82881165 944.17965698 C-236.42923929 942.34625758 -237.02567576 940.51155246 -237.62182617 938.67675781 C-238.49408271 936.20733561 -239.43945734 933.96682244 -240.68408203 931.66943359 C-241.34408203 931.66943359 -242.00408203 931.66943359 -242.68408203 931.66943359 C-242.93182373 932.26844482 -243.17956543 932.86745605 -243.43481445 933.48461914 C-247.27840516 940.20658381 -257.04958016 943.46361687 -263.87158203 946.35693359 C-264.83684814 946.77193115 -265.80211426 947.18692871 -266.79663086 947.61450195 C-308.74433622 965.34246012 -308.74433622 965.34246012 -318.68408203 963.66943359 C-321.68408203 961.73193359 -321.68408203 961.73193359 -323.68408203 958.66943359 C-324.61459011 950.14420719 -321.81551037 942.69625427 -319.12158203 934.73193359 C-318.65904227 933.33747443 -318.19696868 931.94286056 -317.73535156 930.5480957 C-312.72306391 915.49969129 -307.22911496 901.01370271 -299.87207031 886.95117188 C-298.54146264 884.39550822 -297.23574884 881.82781629 -295.93017578 879.25927734 C-290.70334052 869.03650772 -285.24070407 859.0412148 -279.26416016 849.23779297 C-270.04040826 834.09737101 -261.33376562 818.66649179 -253.68408203 802.66943359 C-253.03898682 801.32413574 -253.03898682 801.32413574 -252.38085938 799.95166016 C-249.46547535 793.86535237 -246.56752224 787.77093548 -243.68408203 781.66943359 C-247.17377808 781.66943359 -248.95177964 782.55034944 -252.10986328 784.01318359 C-253.20427734 784.51309814 -254.29869141 785.0130127 -255.42626953 785.52807617 C-256.60447266 786.06972412 -257.78267578 786.61137207 -258.99658203 787.16943359 C-267.28523784 790.93521949 -275.57196887 794.50717382 -284.18408203 797.48193359 C-293.86782841 800.84719428 -303.22576626 804.83559814 -312.62158203 808.91943359 C-352.89631933 826.39242659 -393.71810474 838.76184625 -436.27987671 849.42498779 C-456.20532845 854.41779352 -476.084156 859.52514529 -495.87158203 865.04443359 C-510.74610509 869.18733533 -525.68479531 872.8934002 -540.74658203 876.29443359 C-541.67973236 876.50525574 -542.61288269 876.71607788 -543.5743103 876.93328857 C-548.58234477 878.0595653 -553.59481122 879.16117337 -558.61602783 880.22717285 C-560.47560182 880.62484936 -562.33179737 881.03824625 -564.1875 881.45361328 C-565.15445801 881.65631836 -566.12141602 881.85902344 -567.11767578 882.06787109 C-567.90070068 882.23722168 -568.68372559 882.40657227 -569.49047852 882.58105469 C-572.3373999 882.69575536 -574.16241848 881.95452502 -576.68408203 880.66943359 C-578.69688805 877.4106048 -578.68473337 875.67559624 -578.27783203 871.82568359 C-578.26302158 869.27886608 -578.30770375 868.11338158 -579.97192383 866.15039062 C-581.87491777 864.72254957 -583.82053758 863.50001642 -585.87158203 862.29443359 C-587.35277967 861.35361308 -588.83192138 860.40954864 -590.30908203 859.46240234 C-591.05029297 858.99624512 -591.79150391 858.53008789 -592.55517578 858.04980469 C-595.62279869 856.06077488 -598.50038612 853.86681964 -601.37158203 851.60693359 C-602.15807129 850.99205078 -602.15807129 850.99205078 -602.96044922 850.36474609 C-604.5350469 849.13304353 -606.10956468 847.90123884 -607.68408203 846.66943359 C-608.75020443 845.85874995 -609.81792373 845.0501622 -610.88720703 844.24365234 C-621.89106054 835.92755991 -632.26744982 826.9310811 -642.47705078 817.66162109 C-644.42034204 815.90749978 -646.38767651 814.18970666 -648.37158203 812.48193359 C-661.572721 800.95755219 -674.72400654 788.86685584 -686.07861328 775.49365234 C-687.86718831 773.46137853 -689.75526956 771.56885464 -691.68408203 769.66943359 C-695.56397085 765.83405593 -699.14974818 761.8229716 -702.68408203 757.66943359 C-703.57467952 756.63164957 -704.46530676 755.59389107 -705.35595703 754.55615234 C-709.81380825 749.3434282 -714.20855748 744.13042768 -718.25439453 738.58740234 C-719.85786867 736.43629359 -721.54743088 734.3707822 -723.24658203 732.29443359 C-729.37952828 724.65739977 -735.02732776 716.66167989 -740.68408203 708.66943359 C-741.21163086 707.9254834 -741.73917969 707.1815332 -742.28271484 706.41503906 C-758.00764821 684.1323278 -771.72997326 660.64869721 -784.68408203 636.66943359 C-785.51286865 635.14962891 -785.51286865 635.14962891 -786.35839844 633.59912109 C-812.75400641 585.03944362 -832.55986421 531.81260178 -842.68408203 477.41943359 C-842.85286865 476.51813721 -843.02165527 475.61684082 -843.19555664 474.68823242 C-843.53554448 472.866007 -843.8740407 471.04350255 -844.2109375 469.22070312 C-844.63381223 466.94049626 -845.06599144 464.66228988 -845.50048828 462.38427734 C-849.9830596 438.48204097 -852.26221455 414.14411404 -852.92236328 389.84521484 C-852.97529541 387.93337402 -852.97529541 387.93337402 -853.02929688 385.98291016 C-853.08949924 383.53595462 -853.13604066 381.08861358 -853.16699219 378.64111328 C-853.20445557 376.98644043 -853.20445557 376.98644043 -853.24267578 375.29833984 C-853.26285767 373.84536499 -853.26285767 373.84536499 -853.28344727 372.36303711 C-853.75411119 369.19860377 -854.95172251 367.32953514 -856.68408203 364.66943359 C-858.42491653 358.01634335 -857.08297402 351.59722959 -856.05908203 344.91943359 C-855.87812988 343.69095703 -855.69717773 342.46248047 -855.51074219 341.19677734 C-854.04953196 331.5065161 -852.26142101 321.89217498 -850.40258789 312.27172852 C-849.14093288 305.59892088 -848.19377034 298.997574 -847.62158203 292.23193359 C-846.76424365 282.19346506 -844.96109315 272.47886985 -842.68408203 262.66943359 C-842.51569824 261.9357959 -842.34731445 261.2021582 -842.17382812 260.44628906 C-836.25076689 235.37407873 -825.21972259 210.90257242 -810.68408203 189.66943359 C-809.98025391 188.60337891 -809.27642578 187.53732422 -808.55126953 186.43896484 C-803.25696207 178.58055161 -797.41865186 171.39447062 -791.13427734 164.30761719 C-789.74216661 162.73504766 -788.36412473 161.15118805 -786.98876953 159.56396484 C-782.43493039 154.37317392 -782.43493039 154.37317392 -780.68408203 152.66943359 C-780.02408203 152.66943359 -779.36408203 152.66943359 -778.68408203 152.66943359 C-778.43916016 152.09193359 -778.19423828 151.51443359 -777.94189453 150.91943359 C-772.56316272 141.29785122 -759.47065613 134.01386326 -750.68408203 127.66943359 C-750.10625977 127.24549316 -749.5284375 126.82155273 -748.93310547 126.38476562 C-700.79086051 91.31697063 -636.20550169 75.92278778 -577.48876953 84.69677734 C-540.05550543 90.7845618 -505.33890041 104.1418901 -474.68408203 126.66943359 C-473.63091797 127.43642578 -472.57775391 128.20341797 -471.49267578 128.99365234 C-462.99819751 135.29262683 -455.31984867 142.36565681 -447.68408203 149.66943359 C-447.57451172 148.97309814 -447.46494141 148.2767627 -447.35205078 147.55932617 C-442.75742225 118.91527262 -434.5467348 91.70790205 -425.6081543 64.15966797 C-419.23351247 45.28977837 -419.23351247 45.28977837 -415.94580078 25.74365234 C-415.29910386 20.61833791 -412.38948196 17.22404905 -409.10205078 13.45458984 C-407.44948693 11.37408935 -406.1239712 9.19195225 -404.74658203 6.91943359 C-395.32474843 -8.15137682 -383.53734505 -23.12396809 -369.68408203 -34.33056641 C-368.73919922 -35.10142578 -367.79431641 -35.87228516 -366.82080078 -36.66650391 C-326.94474166 -68.60341001 -273.17596972 -78.93867537 -223.26611328 -82.16308594 C-220.778751 -82.32442581 -218.29440613 -82.51183698 -215.80908203 -82.70166016 C-135.82624344 -88.28827873 -57.11669073 -55.62733765 0 0 Z M-347.68408203 -31.33056641 C-344.72356845 -27.87369882 -341.76135466 -24.41836123 -338.78955078 -20.97119141 C-332.64867731 -13.84062579 -326.61170104 -6.64021681 -320.68408203 0.66943359 C-319.18493703 2.50346614 -317.68492881 4.3367934 -316.18408203 6.16943359 C-315.43900391 7.08080078 -314.69392578 7.99216797 -313.92626953 8.93115234 C-312.4551559 10.72775627 -310.98128675 12.52210816 -309.50439453 14.31396484 C-304.82574212 19.99994277 -300.23887309 25.7499182 -295.70019531 31.54760742 C-293.04687322 34.93693153 -290.37910455 38.31305586 -287.68408203 41.66943359 C-278.99882994 52.50834576 -270.5176276 63.47841686 -262.21777344 74.61523438 C-260.66283511 76.69789134 -259.1021818 78.77613722 -257.53955078 80.85302734 C-250.91009663 89.66430092 -244.30184204 98.48527719 -237.98486328 107.52490234 C-232.36156859 115.56485818 -226.60788395 123.45918108 -220.61108398 131.22485352 C-215.00990829 138.49846947 -209.65381965 145.94028074 -204.30908203 153.40332031 C-201.610898 157.16602226 -198.89661439 160.91706998 -196.18408203 164.66943359 C-195.10592156 166.16289757 -194.0277966 167.65638719 -192.94970703 169.14990234 C-190.73444501 172.21754707 -188.51524086 175.28229069 -186.29345703 178.34521484 C-179.98356633 187.04961413 -173.75066998 195.79310709 -167.68408203 204.66943359 C-167.17844727 205.40871094 -166.6728125 206.14798828 -166.15185547 206.90966797 C-161.44664131 213.78928233 -161.44664131 213.78928233 -159.34472656 216.86791992 C-156.61308457 220.86578762 -153.86521968 224.84830252 -151.05908203 228.79443359 C-147.58379689 233.72985082 -144.33571965 238.80725595 -141.07324219 243.88452148 C-138.22567322 248.30953802 -135.33445231 252.7001346 -132.39404297 257.06396484 C-127.04072996 265.01336611 -121.8481897 273.05613113 -116.74658203 281.16943359 C-116.11977539 282.16015869 -115.49296875 283.15088379 -114.84716797 284.17163086 C-111.09069922 290.1806674 -107.7203141 296.26555284 -104.68408203 302.66943359 C-110.94338194 296.05903175 -116.85452865 289.31753078 -122.40917969 282.10351562 C-125.9174536 277.57514933 -129.59780809 273.22827865 -133.37158203 268.91943359 C-138.30150004 263.28565034 -143.07568896 257.57141068 -147.68408203 251.66943359 C-149.41201996 249.46013647 -151.14149076 247.25204475 -152.87158203 245.04443359 C-153.33338867 244.45436523 -153.79519531 243.86429688 -154.27099609 243.25634766 C-157.81249046 238.74438244 -161.42609968 234.29536953 -165.05908203 229.85693359 C-174.9597666 217.73888516 -184.31899756 205.20289243 -193.68408203 192.66943359 C-194.36341797 191.76708984 -195.04275391 190.86474609 -195.74267578 189.93505859 C-205.61649716 176.8182757 -215.32593399 163.58220663 -224.91162109 150.25366211 C-229.08325885 144.46746498 -233.33682507 138.74659757 -237.63964844 133.05737305 C-246.4345844 121.41792649 -246.4345844 121.41792649 -247.68408203 117.66943359 C-248.84902747 116.53875125 -250.01475063 115.40886071 -251.18408203 114.28271484 C-253.64899784 111.63164654 -255.58048513 108.62846097 -257.62158203 105.64599609 C-259.95780399 102.27440303 -262.37469533 98.97042202 -264.80908203 95.66943359 C-282.56638335 71.52483688 -282.56638335 71.52483688 -289.40283203 61.11083984 C-292.55961008 56.31781829 -295.81994898 51.59445468 -299.05908203 46.85693359 C-304.99264676 38.16564775 -310.8949544 29.45762559 -316.68408203 20.66943359 C-317.51093506 19.41573975 -317.51093506 19.41573975 -318.35449219 18.13671875 C-328.83167114 2.22817923 -339.3325188 -13.72540402 -348.68408203 -30.33056641 C-357.15198652 -24.97932121 -364.37085558 -19.14137526 -370.84423828 -11.47900391 C-372.8512262 -9.13538744 -374.95346601 -6.89830159 -377.05908203 -4.64306641 C-382.21543016 1.0657476 -386.41379361 7.29122502 -390.68408203 13.66943359 C-391.99038881 15.59032661 -393.30229914 17.50742941 -394.62158203 19.41943359 C-395.16685547 20.21865234 -395.71212891 21.01787109 -396.27392578 21.84130859 C-397.68408203 23.66943359 -397.68408203 23.66943359 -399.68408203 24.66943359 C-415.39284477 109.11654029 -381.95143718 211.41485113 -343.59326172 286.88769531 C-338.54135801 296.78801573 -333.66030412 306.76693907 -328.84197998 316.78271484 C-314.99071711 345.5698141 -314.99071711 345.5698141 -299.81103516 373.67114258 C-299.04604473 375.02760849 -298.29515306 376.39210338 -297.55712891 377.76342773 C-294.09378321 384.17419511 -290.128795 390.19213154 -286.05908203 396.23193359 C-285.34977539 397.28896484 -284.64046875 398.34599609 -283.90966797 399.43505859 C-281.83896952 402.51624287 -279.76241572 405.59339608 -277.68408203 408.66943359 C-277.14879883 409.46462402 -276.61351562 410.25981445 -276.06201172 411.07910156 C-271.09855161 418.44396601 -265.98951277 425.65587007 -260.62158203 432.73193359 C-252.41637312 443.56059458 -245.00354752 454.67355205 -238.57080078 466.64599609 C-236.5976029 469.80801506 -234.365764 472.10023828 -231.68408203 474.66943359 C-230.49180339 477.29244661 -230.49235198 478.1532373 -231.49658203 480.85693359 C-232.96216621 483.09387787 -234.02159813 483.52641263 -236.60205078 484.08349609 C-240.10603499 484.4091676 -242.63499789 484.49273658 -245.48095703 482.25927734 C-249.86355496 476.84363848 -253.11640719 470.55159512 -256.57714844 464.52294922 C-261.1819785 456.60353134 -266.54821811 449.3010655 -271.99755859 441.94873047 C-280.11703548 430.97544786 -288.00781608 419.88171765 -295.49121094 408.46533203 C-296.67281236 406.68640037 -297.8820053 404.9299875 -299.10205078 403.17724609 C-319.10949015 374.25453328 -333.70839086 341.12566998 -349.05908203 309.54443359 C-349.42814667 308.78585052 -349.7972113 308.02726746 -350.17745972 307.24569702 C-355.07592726 297.16851352 -359.86388125 287.05476024 -364.43408203 276.82348633 C-366.38442316 272.47082424 -368.40377525 268.18539563 -370.6015625 263.95239258 C-399.42359295 208.40274237 -409.20759339 146.31778674 -414.68408203 84.66943359 C-416.80125565 87.84519402 -417.63530446 90.42296036 -418.70751953 94.07568359 C-418.98692383 95.02357506 -418.98692383 95.02357506 -419.27197266 95.99061584 C-419.87504531 98.0481643 -420.4685103 100.10826388 -421.05908203 102.16943359 C-421.36304901 103.22818192 -421.36304901 103.22818192 -421.67315674 104.30831909 C-440.99073986 171.84699965 -436.39849484 252.88293698 -417.28930664 320.34350586 C-416.55860481 323.15165284 -416.24195796 325.90623827 -415.99658203 328.79443359 C-414.37224738 340.21937566 -408.34892874 352.09210513 -400.68408203 360.66943359 C-400.02408203 360.66943359 -399.36408203 360.66943359 -398.68408203 360.66943359 C-398.43658203 361.53568359 -398.18908203 362.40193359 -397.93408203 363.29443359 C-396.5930021 366.91534942 -394.88141305 369.49551101 -392.68408203 372.66943359 C-388.06476459 379.63499358 -385.13463622 386.49556358 -382.55908203 394.41943359 C-379.24042074 404.14161745 -375.14931004 412.91564883 -370.06982422 421.83032227 C-365.66411076 429.57140668 -362.02996712 437.4986238 -358.54248047 445.68554688 C-357.23397725 448.70969283 -355.83344098 451.6862231 -354.43408203 454.66943359 C-348.08284126 468.37565347 -348.08284126 468.37565347 -347.25830078 473.11865234 C-342.756822 493.11501729 -320.65750581 515.35519752 -308.32080078 531.22802734 C-305.1610982 535.32169192 -302.1150649 539.4981254 -299.05908203 543.66943359 C-293.92983984 550.66905794 -288.71156733 557.59347228 -283.43408203 564.48193359 C-276.14226879 574.01492737 -269.14515358 583.70478229 -262.28173828 593.54833984 C-249.12422225 612.44564566 -249.12422225 612.44564566 -234.21142578 629.95458984 C-232.09310845 632.2300621 -230.0566427 634.53864786 -228.05908203 636.91943359 C-226.88345703 638.28068359 -226.88345703 638.28068359 -225.68408203 639.66943359 C-225.35408203 639.66943359 -225.02408203 639.66943359 -224.68408203 639.66943359 C-224.48814453 638.55568359 -224.29220703 637.44193359 -224.09033203 636.29443359 C-221.94329002 625.01406158 -218.41351012 615.60007712 -212.68408203 605.66943359 C-212.08080078 604.61498047 -211.47751953 603.56052734 -210.85595703 602.47412109 C-207.42305811 596.79901341 -203.6393476 592.08248165 -198.68408203 587.66943359 C-201.19520863 582.53852589 -203.78407246 577.46922224 -206.54199219 572.46582031 C-213.09456372 560.48999707 -218.08267557 548.16380868 -222.05908203 535.10693359 C-222.30996582 534.28620361 -222.56084961 533.46547363 -222.81933594 532.61987305 C-227.79207184 515.64499723 -227.48176292 495.63403323 -222.68408203 478.66943359 C-222.5071582 478.03714844 -222.33023438 477.40486328 -222.14794922 476.75341797 C-219.56710357 467.74051657 -216.45346294 458.4388145 -209.68408203 451.66943359 C-205.8500838 450.90263395 -203.4243218 450.42268701 -199.68408203 451.66943359 C-197.52156508 451.8833089 -195.35327064 452.03965308 -193.18408203 452.16943359 C-192.49830078 452.21148926 -191.81251953 452.25354492 -191.10595703 452.296875 C-186.56026805 452.55844805 -182.01682428 452.72592073 -177.46533203 452.84912109 C-157.60837171 453.40219529 -138.24921696 455.14013077 -118.83666992 459.48706055 C-114.24269434 460.54532644 -114.24269434 460.54532644 -109.68408203 459.66943359 C-118.42824247 453.80289686 -127.42112319 448.46065436 -136.55908203 443.23193359 C-145.83923746 437.91964415 -155.01278883 432.50065407 -164.01611328 426.73193359 C-165.68867726 425.66650642 -167.37393678 424.62109778 -169.05908203 423.57568359 C-170.06970703 422.94662109 -171.08033203 422.31755859 -172.12158203 421.66943359 C-172.98654297 421.13318359 -173.85150391 420.59693359 -174.74267578 420.04443359 C-176.68408203 418.66943359 -176.68408203 418.66943359 -177.68408203 416.66943359 C-177.60158203 415.55568359 -177.51908203 414.44193359 -177.43408203 413.29443359 C-177.51658203 412.09818359 -177.59908203 410.90193359 -177.68408203 409.66943359 C-179.31668918 408.29460653 -180.98633266 406.96295693 -182.68408203 405.66943359 C-184.61064205 400.46641095 -185.00776564 395.75991523 -184.93408203 390.29443359 C-184.92441406 389.54057373 -184.91474609 388.78671387 -184.90478516 388.01000977 C-184.55696334 371.92151171 -176.99890457 359.83610788 -165.68408203 348.66943359 C-164.88615234 347.86119141 -164.08822266 347.05294922 -163.26611328 346.22021484 C-152.03324095 335.39519264 -138.58944548 327.96189387 -124.87158203 320.73193359 C-123.84661621 320.18819092 -122.82165039 319.64444824 -121.765625 319.08422852 C-102.81697333 309.31149872 -102.81697333 309.31149872 -94.37158203 311.29443359 C-93.38416016 311.51744141 -92.39673828 311.74044922 -91.37939453 311.97021484 C-90.48994141 312.20095703 -89.60048828 312.43169922 -88.68408203 312.66943359 C-87.62833984 312.87632812 -87.62833984 312.87632812 -86.55126953 313.08740234 C-81.92201639 314.09942522 -79.92692767 316.36540219 -76.68408203 319.66943359 C-75.18944809 320.92421248 -73.69414243 322.17841667 -72.18066406 323.41040039 C-63.62301682 330.38458656 -56.48124757 338.23940713 -49.30908203 346.60693359 C-45.57752445 350.92436375 -41.49712917 354.88200052 -37.44238281 358.8918457 C-34.5784947 361.73553075 -31.79542658 364.58804702 -29.18408203 367.66943359 C-22.31976635 375.73200887 -14.58123975 383.20241448 -6.52001953 390.05615234 C-3.07215422 393.08587229 0.10328132 396.39448287 3.31591797 399.66943359 C4.20279297 400.55630859 5.08966797 401.44318359 6.00341797 402.35693359 C8.31591797 404.66943359 8.31591797 404.66943359 10.39404297 407.31005859 C14.49622305 410.62251416 17.29279817 410.06725957 22.37841797 409.73193359 C32.99740475 409.37243665 43.28830005 410.31684967 53.81591797 411.54443359 C54.57865021 411.63201935 55.34138245 411.7196051 56.12722778 411.80984497 C60.50697435 412.31547425 64.88272241 412.84709104 69.25592041 413.40652466 C70.62188831 413.58085747 71.98822355 413.75233726 73.35491943 413.92086792 C75.26748088 414.1579048 77.17846639 414.40755349 79.08935547 414.65771484 C80.1713623 414.79733643 81.25336914 414.93695801 82.36816406 415.08081055 C88.38776757 416.28283672 92.78308015 418.98705063 96.87841797 423.48193359 C97.35279297 424.20380859 97.82716797 424.92568359 98.31591797 425.66943359 C98.88947021 425.38060303 99.46302246 425.09177246 100.05395508 424.79418945 C111.08322473 419.30991041 122.30918947 414.47620342 134.09326172 410.88037109 C134.85312881 410.64819382 135.61299591 410.41601654 136.39588928 410.17680359 C140.15992135 409.03673153 143.93104858 407.93149286 147.71655273 406.86499023 C157.31932004 404.08319009 165.30570518 400.21310006 173.66650391 394.74441528 C176.03111929 393.20331151 178.4397936 391.73631633 180.84716797 390.26318359 C182.50386874 389.23265791 184.16012112 388.20141102 185.81591797 387.16943359 C205.14678668 375.17084319 224.78631419 363.75057806 244.61108398 352.58764648 C249.38141049 349.900324 254.14271686 347.19969631 258.88232422 344.45849609 C267.47608594 339.49236859 276.06963856 334.67413002 284.9934082 330.32446289 C288.5428828 328.58696104 291.95791261 326.75217655 295.31591797 324.66943359 C299.28522463 322.21161788 303.37731274 320.09765118 307.56591797 318.04443359 C314.05802466 314.85694807 320.41828314 311.47047137 326.75341797 307.98193359 C336.863297 302.42092454 347.07536109 297.07545284 357.32373047 291.77490234 C363.37803279 288.64353304 369.40966774 285.47025642 375.42602539 282.26660156 C382.98618453 278.26368772 390.653814 274.47221887 398.31591797 270.66943359 C398.97963409 270.3399472 399.64335022 270.01046082 400.32717896 269.67098999 C405.06585638 267.32160106 409.8126329 264.98912133 414.56591797 262.66943359 C415.30028076 262.31103394 416.03464355 261.95263428 416.79125977 261.58337402 C432.23723789 254.06377382 447.89636538 247.05824407 463.6317749 240.16931152 C469.21722273 237.72185123 474.77443246 235.21496089 480.31591797 232.66943359 C476.92448151 224.14586573 473.07389854 215.97946519 468.81591797 207.85693359 C468.20498291 206.68694824 467.59404785 205.51696289 466.96459961 204.31152344 C451.40607546 174.63213195 434.59731364 146.63885444 412.65869141 121.23876953 C411.28009418 119.62756536 409.92452307 117.9993106 408.57373047 116.36474609 C398.66793469 104.40160624 388.28977823 94.23969082 375.31591797 85.66943359 C374.26533203 84.96947266 373.21474609 84.26951172 372.13232422 83.54833984 C359.41210251 75.401681 347.06961384 69.36323055 332.09106445 66.94775391 C331.29514893 66.81852539 330.4992334 66.68929687 329.67919922 66.55615234 C328.98093018 66.45520264 328.28266113 66.35425293 327.56323242 66.25024414 C325.31591797 65.66943359 325.31591797 65.66943359 322.61547852 64.1574707 C318.37456449 62.24490163 314.76106044 62.11223906 310.15966797 61.97412109 C309.2726973 61.93657211 308.38572662 61.89902313 307.47187805 61.8603363 C304.58690923 61.74158676 301.70165781 61.64250009 298.81591797 61.54443359 C296.81547192 61.46756482 294.81506479 61.38967686 292.81469727 61.31079102 C288.82625199 61.1558205 284.83763322 61.00907109 280.84863281 60.86914062 C276.10336944 60.70139777 271.36014351 60.50278552 266.61669922 60.29052734 C210.25013656 57.87220727 152.30667322 63.85406132 108.31591797 102.66943359 C101.67527178 108.77268645 95.90219345 115.10786638 90.66357422 122.42993164 C88.51419545 125.38033523 86.84655895 127.51671919 83.31591797 128.66943359 C79.53263278 128.51179671 77.8227152 128.10954698 74.94091797 125.60693359 C74.13654297 124.64787109 74.13654297 124.64787109 73.31591797 123.66943359 C72.98591797 123.99943359 72.65591797 124.32943359 72.31591797 124.66943359 C69.56591797 125.04443359 69.56591797 125.04443359 66.31591797 124.66943359 C61.83255842 120.95167873 59.58362565 116.83679665 57.13623047 111.69287109 C56.57245193 110.54402939 56.57245193 110.54402939 55.99728394 109.37197876 C54.80210295 106.93406727 53.62043304 104.48995828 52.44091797 102.04443359 C47.52759478 91.89889853 42.64003888 82.03252527 36.31591797 72.66943359 C35.57878987 71.50483851 34.8462699 70.3372998 34.12060547 69.16552734 C25.92790565 56.17993228 16.95840375 43.62068357 7.31591797 31.66943359 C6.62240234 30.80318359 5.92888672 29.93693359 5.21435547 29.04443359 C-1.54850284 20.67801095 -8.33426078 12.35218951 -16.60644531 5.42431641 C-18.57687116 3.75998961 -20.50228276 2.05498155 -22.42626953 0.33740234 C-26.3775032 -3.1220332 -30.47868619 -6.27402861 -34.74658203 -9.33056641 C-35.50970703 -9.87817627 -36.27283203 -10.42578613 -37.05908203 -10.98999023 C-82.43269991 -43.23702046 -131.2333169 -65.74931248 -187.68408203 -67.33056641 C-188.81620117 -67.3634375 -188.81620117 -67.3634375 -189.97119141 -67.39697266 C-240.84190067 -68.63070045 -305.05675441 -62.00551288 -347.68408203 -31.33056641 Z M-650.11376953 101.98583984 C-652.76004784 102.49251239 -655.16821337 102.80093971 -657.83251953 103.00927734 C-663.96179835 103.65204087 -669.62706023 105.68521611 -675.43408203 107.66943359 C-677.21927246 108.27609863 -677.21927246 108.27609863 -679.04052734 108.89501953 C-709.48704521 119.41379775 -736.48080473 134.40546892 -760.68408203 155.66943359 C-761.55806641 156.43126953 -762.43205078 157.19310547 -763.33251953 157.97802734 C-769.67015773 163.58593749 -776.02157313 169.37177636 -781.68408203 175.66943359 C-781.68408203 176.32943359 -781.68408203 176.98943359 -781.68408203 177.66943359 C-782.34408203 177.66943359 -783.00408203 177.66943359 -783.68408203 177.66943359 C-783.68408203 178.32943359 -783.68408203 178.98943359 -783.68408203 179.66943359 C-784.34408203 179.66943359 -785.00408203 179.66943359 -785.68408203 179.66943359 C-798.310742 193.93525429 -808.85455703 210.84208956 -817.68408203 227.66943359 C-818.0330957 228.33040039 -818.38210938 228.99136719 -818.74169922 229.67236328 C-823.69062319 239.10952799 -827.99753327 248.66776135 -831.68408203 258.66943359 C-832.30669922 260.30332031 -832.30669922 260.30332031 -832.94189453 261.97021484 C-835.4416498 269.12860492 -836.03553109 275.396035 -835.72705078 282.96630859 C-835.68568071 286.53165627 -836.0076877 289.85527356 -836.43725586 293.38378906 C-840.5447549 331.41979893 -827.03062039 368.7199218 -811.68408203 402.66943359 C-811.24966797 403.6373584 -810.81525391 404.6052832 -810.36767578 405.60253906 C-797.35005744 434.58863494 -783.38047812 463.14987901 -768.12646484 491.02587891 C-766.83668062 493.3897556 -765.56036539 495.76016944 -764.28955078 498.13427734 C-754.10422752 517.04445853 -743.05066662 535.65121394 -730.92626953 553.38818359 C-729.36798088 555.66860601 -727.83114072 557.95411267 -726.31689453 560.26318359 C-717.32652427 573.95832157 -707.77100878 587.23360822 -697.55908203 600.04443359 C-695.44965836 602.69155349 -693.37261059 605.36138066 -691.30908203 608.04443359 C-684.49110871 616.90412776 -677.51533682 625.55164527 -670.16064453 633.97070312 C-668.63642789 635.72425791 -667.12708758 637.48963963 -665.62158203 639.25927734 C-660.1559645 645.6831807 -654.61626997 652.01132895 -648.91064453 658.22412109 C-646.98208283 660.34215552 -645.10688687 662.49173077 -643.24658203 664.66943359 C-639.46121333 669.03924165 -635.32452145 673.04635274 -631.21142578 677.10302734 C-629.21879077 679.12646043 -627.38773012 681.14007709 -625.62158203 683.35693359 C-624.98220703 684.12005859 -624.34283203 684.88318359 -623.68408203 685.66943359 C-623.02408203 685.66943359 -622.36408203 685.66943359 -621.68408203 685.66943359 C-621.68408203 686.32943359 -621.68408203 686.98943359 -621.68408203 687.66943359 C-621.02408203 687.66943359 -620.36408203 687.66943359 -619.68408203 687.66943359 C-619.68408203 688.32943359 -619.68408203 688.98943359 -619.68408203 689.66943359 C-617.76367603 690.89753022 -615.79499201 692.05035268 -613.80908203 693.16943359 C-604.64394348 698.55686275 -597.85635733 705.99223256 -591.15673828 714.17333984 C-589.64628444 715.93439985 -589.64628444 715.93439985 -586.68408203 716.66943359 C-586.68408203 717.32943359 -586.68408203 717.98943359 -586.68408203 718.66943359 C-585.13392251 719.83361199 -585.13392251 719.83361199 -583.10595703 720.91162109 C-582.35701172 721.33830078 -581.60806641 721.76498047 -580.83642578 722.20458984 C-579.64726563 722.8678125 -579.64726563 722.8678125 -578.43408203 723.54443359 C-566.65783174 730.12585374 -566.65783174 730.12585374 -564.84814453 734.85302734 C-564.48963897 736.35199625 -564.13544826 737.8520039 -563.78564453 739.35302734 C-562.17450774 742.74098521 -560.02722971 745.02804413 -556.68408203 746.66943359 C-553.56620376 746.52626571 -551.37836842 746.17398876 -548.43408203 745.35693359 C-546.73618658 744.94018049 -545.03826866 744.5235189 -543.34033203 744.10693359 C-541.97521484 743.75501953 -541.97521484 743.75501953 -540.58251953 743.39599609 C-537.55414392 742.63686151 -534.51615955 741.95732945 -531.46533203 741.29443359 C-518.07323083 738.36633182 -504.96337814 734.87179462 -491.90771484 730.6965332 C-489.44064479 729.91048627 -486.97144757 729.13350569 -484.49951172 728.36303711 C-472.53853061 724.62714849 -460.66398088 720.66570231 -448.80908203 716.60693359 C-446.87809475 715.94766578 -444.94710512 715.28840484 -443.01611328 714.62915039 C-431.64016853 710.73958886 -420.28694188 706.78938257 -408.9515686 702.78326416 C-369.85448924 688.96634232 -330.42501565 675.94092284 -290.62280273 664.30004883 C-265.07033048 657.03609875 -265.07033048 657.03609875 -240.68408203 646.66943359 C-242.91496728 642.5930652 -245.67607426 639.37400324 -248.87158203 636.04443359 C-256.6415256 627.73845581 -262.85786279 618.43630012 -269.26391602 609.0715332 C-277.30108032 597.35450465 -285.66031533 585.87794069 -294.37158203 574.65380859 C-301.23049021 565.80210952 -307.8292597 556.75568383 -314.45825195 547.73168945 C-317.83447335 543.14619755 -321.25220371 538.60295782 -324.74658203 534.10693359 C-351.19829464 499.87530551 -373.07311563 463.38493745 -388.00543213 422.71011353 C-390.86825036 414.94681516 -393.88427882 407.7884497 -398.40893555 400.86035156 C-402.91663138 393.95816286 -406.14399982 386.45759568 -409.59326172 378.98876953 C-411.27802019 375.40658388 -413.07665983 371.8847802 -414.87158203 368.35693359 C-441.06480979 316.07237248 -445.80275151 254.79969999 -447.43408203 197.16943359 C-447.47106201 195.94427536 -447.47106201 195.94427536 -447.50878906 194.69436646 C-447.76684612 185.67398666 -447.63264092 176.92805314 -446.7253418 167.93603516 C-445.70500944 159.2379883 -445.70500944 159.2379883 -448.87548828 151.42333984 C-451.52036533 149.04369702 -454.46638482 147.40726436 -457.61865234 145.78857422 C-460.6165088 144.16420377 -463.33657735 142.19343489 -466.12280273 140.234375 C-482.88730564 128.56783894 -500.66065626 120.00761041 -519.68408203 112.66943359 C-520.4671875 112.36521484 -521.25029297 112.06099609 -522.05712891 111.74755859 C-561.49559432 96.72338129 -608.81686898 93.22726643 -650.11376953 101.98583984 Z M475.76123047 237.79443359 C475.0704541 238.24979492 474.37967773 238.70515625 473.66796875 239.17431641 C472.56557861 239.91439941 472.56557861 239.91439941 471.44091797 240.66943359 C469.90002558 241.68623294 468.35835132 242.70184833 466.81591797 243.71630859 C466.05279297 244.2196875 465.28966797 244.72306641 464.50341797 245.24169922 C460.47809845 247.86893901 456.36839899 250.35359032 452.26513672 252.85693359 C449.5719212 254.5121018 446.90986907 256.2061256 444.25341797 257.91943359 C435.72604663 263.36269801 427.0162632 268.50911353 418.31591797 273.66943359 C416.93629883 274.48806885 416.93629883 274.48806885 415.52880859 275.32324219 C400.08829601 284.4619954 384.44838108 293.20699641 368.70751953 301.81347656 C365.62353752 303.50109759 362.54326282 305.19523434 359.46435547 306.89208984 C348.83537529 312.73698521 338.11954611 318.39085775 327.34350586 323.9597168 C321.34543453 327.06781253 315.39342164 330.23625503 309.50341797 333.54443359 C275.75597803 352.4972963 241.23596087 369.9946954 206.31591797 386.66943359 C206.31591797 386.99943359 206.31591797 387.32943359 206.31591797 387.66943359 C208.92100432 387.55551727 211.52437343 387.42877811 214.12841797 387.29443359 C215.23540039 387.24802734 215.23540039 387.24802734 216.36474609 387.20068359 C220.13484912 386.99597212 222.11242538 386.80509532 225.31591797 384.66943359 C228.77920397 384.05826548 231.17178956 383.96571306 234.23388672 385.84912109 C249.09146362 398.2452631 259.27953917 415.938691 266.31591797 433.66943359 C271.62344687 430.72312818 276.66295245 427.50484824 281.69091797 424.10693359 C283.3037223 423.02679406 284.91701414 421.94738214 286.53076172 420.86865234 C287.33755371 420.32901855 288.1443457 419.78938477 288.97558594 419.23339844 C315.59524537 401.44437921 343.4995521 385.66175251 371.62792969 370.39892578 C376.87694482 367.55033528 382.11343648 364.68050726 387.33544922 361.78271484 C400.50264895 354.47854922 413.70647666 347.2777304 427.09326172 340.38037109 C430.31768727 338.71754812 433.51851302 337.02389511 436.69482422 335.27099609 C451.10385737 327.37080313 466.18005001 320.93352971 481.22102356 314.34902954 C486.94350428 311.8417679 492.63946541 309.27939467 498.31591797 306.66943359 C497.448877 281.64483735 492.95949341 258.4663115 482.31591797 235.66943359 C479.05082181 235.66943359 478.37488725 236.04879357 475.76123047 237.79443359 Z M492.85498047 315.52880859 C491.918396 316.14385254 490.98181152 316.75889648 490.0168457 317.39257812 C489.00178955 318.06144043 487.9867334 318.73030273 486.94091797 319.41943359 C462.20959878 335.61908778 437.01228599 350.73683123 411.16210938 365.08837891 C408.63160663 366.49406906 406.10388841 367.90456065 403.57763672 369.31787109 C393.23461233 375.09718591 382.82215447 380.74514941 372.39794922 386.37646484 C367.57710183 388.98243172 362.76863261 391.61018183 357.96411133 394.24609375 C349.35189035 398.96679778 340.70315144 403.6118298 332.00341797 408.16943359 C331.0668335 408.66193604 330.13024902 409.15443848 329.1652832 409.66186523 C324.45634689 412.11614029 319.72826649 414.42510787 314.85961914 416.54345703 C311.67365713 417.95373218 308.52003502 419.43031602 305.36669922 420.91162109 C304.42856636 421.35160431 304.42856636 421.35160431 303.47148132 421.80047607 C300.87855328 423.01700118 298.28615173 424.23462845 295.69506836 425.45507812 C286.64380766 429.71598121 277.53768823 433.7894935 268.31591797 437.66943359 C269.57309537 443.68011758 271.10557984 449.54194045 272.8293457 455.43481445 C279.12393197 477.04262406 285.53196327 502.14810995 276.33935547 523.98974609 C275.31591797 525.66943359 275.31591797 525.66943359 273.31591797 526.66943359 C269.64261832 526.80300813 266.81738838 526.8365904 263.31591797 525.66943359 C260.89469415 526.03783265 260.89469415 526.03783265 258.22216797 526.77880859 C257.18962891 527.03919922 256.15708984 527.29958984 255.09326172 527.56787109 C252.97071622 528.11937874 250.84831116 528.67142728 248.72607422 529.22412109 C231.49213662 533.56952029 213.96995873 535.34599029 196.31201172 536.97436523 C193.76319814 537.21153595 191.21536494 537.45766783 188.66748047 537.70458984 C187.89981354 537.77235123 187.13214661 537.84011261 186.34121704 537.90992737 C182.34535566 538.30028002 178.95281673 538.94165979 175.31591797 540.66943359 C179.18407816 543.87388802 183.57243153 546.04605754 188.00341797 548.35693359 C189.26448364 549.01786011 189.26448364 549.01786011 190.55102539 549.69213867 C196.71928281 552.89930828 202.95514807 555.92857207 209.265625 558.84448242 C213.52580277 560.81388474 217.7100465 562.88473388 221.87841797 565.04443359 C228.43681679 568.33895636 235.13020555 571.28546177 241.87841797 574.16943359 C242.92650635 574.62753418 243.97459473 575.08563477 245.05444336 575.55761719 C246.54705688 576.18531006 246.54705688 576.18531006 248.06982422 576.82568359 C249.40509155 577.39512695 249.40509155 577.39512695 250.76733398 577.97607422 C253.7103745 578.77674814 255.42117095 578.55616869 258.31591797 577.66943359 C261.06714813 575.55974589 261.36194564 574.52112222 262.44091797 571.04443359 C268.46766243 554.60514547 292.92657116 543.93180106 307.31591797 535.66943359 C307.96657227 535.29334961 308.61722656 534.91726563 309.28759766 534.52978516 C316.05206036 530.62934823 322.81121296 526.87417441 329.87841797 523.54443359 C339.62643171 518.77126825 348.49812484 512.51735055 357.51782227 506.51464844 C361.19291144 504.09109692 364.90597424 501.73048595 368.62524414 499.37548828 C371.23382761 497.72148399 373.83273518 496.05332093 376.42919922 494.38037109 C391.17669135 484.90316027 406.08591092 475.71391326 421.46044922 467.28271484 C431.43965468 461.79767652 440.25586963 456.77764955 448.31591797 448.66943359 C452.27045281 445.34436591 456.36387295 442.26264088 460.71044922 439.47021484 C469.43385856 433.77049932 474.62062686 428.20329934 479.31591797 418.66943359 C479.84443359 417.64720703 480.37294922 416.62498047 480.91748047 415.57177734 C495.63871604 384.50619561 497.34295035 346.45039459 498.31591797 312.66943359 C496.31759026 312.66943359 494.44908671 314.47793155 492.85498047 315.52880859 Z M-104.68408203 327.54443359 C-105.3832373 327.85469482 -106.08239258 328.16495605 -106.80273438 328.48461914 C-130.43574895 339.15616646 -157.01550876 353.22329042 -168.68408203 377.66943359 C-169.58474986 380.37143708 -169.81246566 381.94974786 -169.81689453 384.72412109 C-169.81818359 385.50400391 -169.81947266 386.28388672 -169.82080078 387.08740234 C-169.815 388.30363281 -169.815 388.30363281 -169.80908203 389.54443359 C-169.81294922 390.34751953 -169.81681641 391.15060547 -169.82080078 391.97802734 C-169.81410135 396.0445829 -169.49436816 399.67693285 -168.68408203 403.66943359 C-169.17908203 405.15443359 -169.17908203 405.15443359 -169.68408203 406.66943359 C-168.60255859 407.28947266 -167.52103516 407.90951172 -166.40673828 408.54833984 C-155.78210391 414.66017751 -145.2496905 420.91172051 -134.7590332 427.25073242 C-128.92118605 430.76691785 -123.04515489 434.16358664 -117.05908203 437.41943359 C-109.67152611 441.47055065 -102.9825455 446.30368138 -96.31152344 451.43408203 C-94.84750625 452.5453822 -93.3514766 453.61420489 -91.85205078 454.67724609 C-91.05412109 455.25216797 -90.25619141 455.82708984 -89.43408203 456.41943359 C-88.76892578 456.88865234 -88.10376953 457.35787109 -87.41845703 457.84130859 C-85.68408203 459.66943359 -85.68408203 459.66943359 -84.62548828 463.22412109 C-83.09775889 466.75220074 -83.09775889 466.75220074 -80.52050781 467.59326172 C-77.64206726 468.24005495 -74.79865594 468.67550394 -71.87158203 469.04443359 C-70.83654541 469.19960449 -69.80150879 469.35477539 -68.73510742 469.51464844 C-62.01580413 470.48450964 -55.31130636 471.17345903 -48.52392578 471.39599609 C-45.29338049 471.70705272 -42.67313822 472.40597438 -39.68408203 473.66943359 C-37.68408203 476.66943359 -37.68408203 476.66943359 -37.68408203 479.10693359 C-38.77951388 481.9139777 -39.90891355 483.41446886 -42.52246094 484.95507812 C-52.16814871 488.14270885 -64.37110366 485.10698875 -74.12158203 483.48193359 C-75.52561187 483.25539189 -76.92966495 483.02899419 -78.33374023 482.80273438 C-91.44421259 480.65830411 -104.39956083 477.90811255 -117.31298828 474.79443359 C-145.27226624 468.0758086 -174.06255377 467.57664864 -202.68408203 466.66943359 C-214.39416096 493.58211972 -213.34317958 518.60687553 -202.86230469 545.73828125 C-194.14783437 569.99186903 -194.14783437 569.99186903 -178.68408203 588.66943359 C-178.145979 588.06059326 -177.60787598 587.45175293 -177.0534668 586.82446289 C-174.37591735 584.38914821 -172.1645889 583.42506467 -168.77392578 582.18896484 C-167.61747559 581.76695801 -166.46102539 581.34495117 -165.26953125 580.91015625 C-159.62475797 578.95681716 -153.95586997 577.11259919 -148.24658203 575.35693359 C-146.99651367 574.97230957 -145.74644531 574.58768555 -144.45849609 574.19140625 C-119.81084759 566.66569005 -94.92732843 560.76732386 -69.68408203 555.66943359 C-70.30806885 555.36021973 -70.93205566 555.05100586 -71.57495117 554.73242188 C-78.90493417 551.03815796 -83.32783724 546.3900677 -86.46923828 538.76318359 C-88.8860897 530.95243199 -87.81571288 523.24144601 -84.12158203 516.04443359 C-76.2847996 503.06303399 -64.6441618 493.90112093 -50.15283203 489.25537109 C-45.26203132 488.09457979 -41.43299402 487.94072027 -36.68408203 489.91943359 C-36.02408203 490.49693359 -35.36408203 491.07443359 -34.68408203 491.66943359 C-34.68408203 492.98943359 -34.68408203 494.30943359 -34.68408203 495.66943359 C-35.56708984 496.16572266 -36.45009766 496.66201172 -37.35986328 497.17333984 C-58.7066032 508.15091132 -58.7066032 508.15091132 -72.68408203 526.66943359 C-73.39117815 530.33347713 -73.47193954 532.38068654 -71.50439453 535.59912109 C-70.4810683 536.96178867 -69.42473531 538.30016287 -68.34033203 539.61474609 C-66.23345466 542.22846661 -64.56355403 545.02139341 -62.85986328 547.90771484 C-61.54116286 550.0079673 -61.54116286 550.0079673 -58.68408203 552.66943359 C-55.05408203 551.67943359 -51.42408203 550.68943359 -47.68408203 549.66943359 C-48.01408203 548.34943359 -48.34408203 547.02943359 -48.68408203 545.66943359 C-50.29735674 535.07504192 -46.51955586 527.18589815 -40.68408203 518.66943359 C-38.1724802 515.32857579 -35.52493769 512.1052782 -32.85180664 508.89306641 C-26.09456781 500.70207801 -23.65585036 493.24466871 -23.47314453 482.59912109 C-23.44478516 481.45443359 -23.41642578 480.30974609 -23.38720703 479.13037109 C-23.33563754 476.76333135 -23.29121943 474.39612363 -23.25439453 472.02880859 C-22.96215871 461.14302419 -21.11245971 451.57203298 -15.99658203 441.91943359 C-15.67625 441.30583984 -15.35591797 440.69224609 -15.02587891 440.06005859 C-14.25665908 438.5905043 -13.47214514 437.12896965 -12.68408203 435.66943359 C-13.22709961 435.38334229 -13.77011719 435.09725098 -14.32958984 434.80249023 C-24.2563473 429.54189691 -33.81405279 424.33060455 -42.56689453 417.25146484 C-44.51060751 415.46990686 -44.51060751 415.46990686 -46.68408203 415.66943359 C-47.34408203 414.34943359 -48.00408203 413.02943359 -48.68408203 411.66943359 C-49.34408203 411.66943359 -50.00408203 411.66943359 -50.68408203 411.66943359 C-51.05339844 410.82832031 -51.05339844 410.82832031 -51.43017578 409.97021484 C-52.90807804 407.25842534 -54.71778896 405.1862886 -56.74658203 402.85693359 C-73.52647574 382.5119826 -86.05397806 354.53433545 -91.01611328 328.71630859 C-91.57192722 326.29721301 -91.57192722 326.29721301 -94.68408203 324.66943359 C-98.47813617 324.66943359 -101.28196364 326.03150998 -104.68408203 327.54443359 Z M-844.68408203 334.66943359 C-845.26281119 338.6151043 -845.83203275 342.56202727 -846.39306641 346.51025391 C-846.67794154 348.501512 -846.96999589 350.49173881 -847.26220703 352.48193359 C-849.02791424 364.96800601 -848.61659333 375.99368575 -846.99658203 388.48193359 C-846.90760651 389.17817841 -846.81863098 389.87442322 -846.72695923 390.59176636 C-843.47182804 415.94220266 -838.57509105 440.81696297 -832.68408203 465.66943359 C-832.4678418 466.60013672 -832.25160156 467.53083984 -832.02880859 468.48974609 C-819.68139199 521.57747406 -800.0974725 574.45672186 -774.68408203 622.66943359 C-773.95632568 624.0611377 -773.95632568 624.0611377 -773.21386719 625.48095703 C-763.36205561 644.26676436 -752.67840316 662.42216382 -741.17993164 680.24389648 C-739.88389627 682.34543254 -738.74272191 684.44121173 -737.68408203 686.66943359 C-737.02408203 686.66943359 -736.36408203 686.66943359 -735.68408203 686.66943359 C-735.47783203 687.32041016 -735.27158203 687.97138672 -735.05908203 688.64208984 C-733.13679844 692.87439037 -730.44283621 696.38172934 -727.68408203 700.10693359 C-726.50008456 701.72382554 -725.31649488 703.34101617 -724.13330078 704.95849609 C-723.54726074 705.75674805 -722.9612207 706.555 -722.35742188 707.37744141 C-720.44866162 709.99189155 -718.57332881 712.62833969 -716.70532227 715.27197266 C-709.46737378 725.51123568 -701.81228739 735.38243376 -693.83251953 745.05615234 C-691.76038476 747.57662173 -689.71747168 750.11765014 -687.68408203 752.66943359 C-686.70181641 753.89726563 -686.70181641 753.89726563 -685.69970703 755.14990234 C-684.33258154 756.85880921 -682.96808081 758.56981858 -681.60595703 760.28271484 C-676.47976735 766.65357288 -671.06244652 772.67464031 -665.48876953 778.64990234 C-661.35328574 783.08592196 -657.32132303 787.59880527 -653.55908203 792.35693359 C-651.88939744 794.41621126 -650.12397342 796.2594988 -648.24356079 798.12310791 C-646.43654715 799.9148807 -644.64155969 801.71829055 -642.84692383 803.52246094 C-638.87981106 807.50749308 -634.9095493 811.48937259 -630.93823242 815.47021484 C-629.23159992 817.18187974 -627.52586553 818.8944406 -625.82104492 820.60791016 C-623.34419676 823.09696897 -620.86406131 825.58271231 -618.38330078 828.06787109 C-617.6309465 828.82538666 -616.87859222 829.58290222 -616.10343933 830.3633728 C-612.02223125 834.44500664 -607.85806072 838.36222003 -603.47615051 842.12014771 C-600.46874471 844.72012165 -597.58347811 847.45037683 -594.68408203 850.16943359 C-589.76332282 854.76359374 -584.80421185 859.29665191 -579.68408203 863.66943359 C-578.65288407 860.41126288 -578.73977617 859.44432672 -579.61767578 855.89599609 C-581.10252814 849.74464301 -580.86669641 843.59894896 -580.77700806 837.31622314 C-580.72299221 833.28307637 -580.71286037 829.24976297 -580.69970703 825.21630859 C-580.6963887 824.33089386 -580.69307037 823.44547913 -580.68965149 822.53323364 C-580.65877262 811.02637616 -580.7774672 799.52144487 -580.94552612 788.01593018 C-580.97946196 785.54232617 -581.00791717 783.06864068 -581.03079224 780.59490967 C-581.06401938 777.09075794 -581.11593258 773.58734124 -581.17236328 770.08349609 C-581.17874817 769.03389709 -581.18513306 767.9842981 -581.19171143 766.90289307 C-581.31050981 761.00805212 -582.06344642 756.94347894 -584.68408203 751.66943359 C-584.9641846 748.09812587 -584.73685889 745.09095838 -583.68408203 741.66943359 C-582.03408203 741.66943359 -580.38408203 741.66943359 -578.68408203 741.66943359 C-581.15293838 738.87638398 -583.84604527 737.40942656 -587.12158203 735.66943359 C-599.10564582 728.80688859 -608.60712889 718.56145888 -616.43408203 707.29443359 C-620.78707064 701.20362396 -626.00896862 696.50750963 -631.68408203 691.66943359 C-642.68510355 682.11256162 -653.2390123 672.20990723 -663.55908203 661.91943359 C-664.89652466 660.58887939 -664.89652466 660.58887939 -666.26098633 659.23144531 C-671.27690522 654.20376411 -676.06227689 649.05924475 -680.68408203 643.66943359 C-682.1385372 642.06174987 -683.59629098 640.45703645 -685.05908203 638.85693359 C-703.03068951 618.91209218 -719.37870131 596.95431064 -734.33496094 574.67773438 C-735.74027686 572.585782 -737.15537382 570.50064914 -738.57080078 568.41552734 C-763.74064811 531.17590447 -785.86536218 491.99087842 -803.69970703 450.72412109 C-804.1822998 449.61029053 -804.66489258 448.49645996 -805.16210938 447.34887695 C-806.05766844 445.27056014 -806.94424911 443.18833773 -807.81933594 441.10131836 C-810.38321858 435.12146604 -813.42289782 429.83922673 -816.98803711 424.40356445 C-821.77798745 416.68186389 -824.7398485 408.19669856 -827.37158203 399.54443359 C-827.86489014 397.93580444 -827.86489014 397.93580444 -828.36816406 396.29467773 C-834.40977851 376.03330236 -839.14726112 355.3147293 -843.68408203 334.66943359 C-844.01408203 334.66943359 -844.34408203 334.66943359 -844.68408203 334.66943359 Z M-69.68408203 347.66943359 C-61.79792845 367.5819714 -53.49302142 384.89752275 -38.68408203 400.66943359 C-38.10529297 401.34748047 -37.52650391 402.02552734 -36.93017578 402.72412109 C-28.27717536 412.3643766 -14.99562573 419.10626544 -2.68408203 422.66943359 C-1.69408203 421.34943359 -0.70408203 420.02943359 0.31591797 418.66943359 C-1.03669438 415.56244286 -2.4365177 413.79404267 -5.05908203 411.66943359 C-8.8022769 408.51153828 -12.25143722 405.15488833 -15.68408203 401.66943359 C-19.5986182 397.70488309 -23.58404195 393.92888815 -27.82080078 390.30615234 C-33.24560672 385.54096641 -38.07297893 380.27140296 -42.77001953 374.80224609 C-44.98860031 372.33011323 -47.32114872 370.00381182 -49.68408203 367.66943359 C-54.53220013 362.87273493 -59.03761552 357.87819783 -63.37548828 352.61865234 C-63.91044922 351.97541016 -64.44541016 351.33216797 -64.99658203 350.66943359 C-65.46708984 350.09193359 -65.93759766 349.51443359 -66.42236328 348.91943359 C-67.6248693 347.43483359 -67.6248693 347.43483359 -69.68408203 347.66943359 Z M222.37841797 400.04443359 C219.08058742 401.19037786 216.08722694 401.83680475 212.62841797 402.23193359 C205.72802737 403.52043246 200.60279629 408.1547789 195.14697266 412.29492188 C172.13649985 429.5681168 140.15991975 447.71393874 111.31591797 451.66943359 C113.67537589 454.02889151 114.48882451 454.01774706 117.71826172 454.38037109 C118.60360596 454.48841064 119.4889502 454.5964502 120.40112305 454.70776367 C121.81300903 454.87441528 121.81300903 454.87441528 123.25341797 455.04443359 C134.36702461 456.51018055 145.13771865 458.31804888 153.31591797 466.66943359 C156.41691263 470.90365293 158.02547008 475.19814824 157.69091797 480.54052734 C155.9594804 490.37004273 150.59923292 497.8284029 142.59716797 503.64599609 C139.87646379 505.40249467 137.12584719 507.0601863 134.31591797 508.66943359 C133.57083984 509.10513672 132.82576172 509.54083984 132.05810547 509.98974609 C130.48679945 510.89944958 128.90307636 511.78767893 127.31591797 512.66943359 C130.68891948 515.47236112 134.09206427 517.84289583 137.87841797 520.05224609 C139.44462891 520.96683594 139.44462891 520.96683594 141.04248047 521.89990234 C142.12271484 522.52509766 143.20294922 523.15029297 144.31591797 523.79443359 C145.39615234 524.42736328 146.47638672 525.06029297 147.58935547 525.71240234 C152.09511372 528.33241733 156.423476 530.83920746 161.31591797 532.66943359 C161.72841797 531.90630859 162.14091797 531.14318359 162.56591797 530.35693359 C171.89556815 521.23932091 194.39238312 522.28419617 206.70654297 520.98974609 C226.56672712 518.87954529 246.24986763 515.77466259 265.31591797 509.66943359 C266.60918709 474.53562246 256.91517877 433.62135691 233.31591797 406.66943359 C231.64648298 404.47960987 230.02061842 402.26567116 228.40966797 400.03271484 C228.04873047 399.58283203 227.68779297 399.13294922 227.31591797 398.66943359 C225.5804442 398.66943359 224.00126298 399.46830936 222.37841797 400.04443359 Z M12.31591797 426.66943359 C10.68585722 428.92201944 10.68585722 428.92201944 9.31591797 431.54443359 C7.3172619 435.18329111 5.2645709 437.76605749 2.31591797 440.66943359 C1.07659434 442.36184328 -0.1095585 444.09416557 -1.24658203 445.85693359 C-1.82537109 446.73736328 -2.40416016 447.61779297 -3.00048828 448.52490234 C-7.31749446 456.58798813 -8.11835468 463.85094863 -8.24658203 472.91943359 C-8.75403422 490.94250951 -10.62796335 504.77357147 -22.28857422 519.20898438 C-31.10208248 529.84082263 -31.10208248 529.84082263 -34.80908203 542.72412109 C-34.22369734 547.32183004 -33.69657115 549.8688608 -29.99658203 552.79443359 C-28.35689453 553.72255859 -28.35689453 553.72255859 -26.68408203 554.66943359 C-25.69127596 556.06215874 -24.73692674 557.4826137 -23.80908203 558.91943359 C-16.38347696 568.89142978 -0.29463572 574.12607024 11.49902344 576.02001953 C23.237132 577.6679023 33.76820809 578.4100781 45.31591797 575.35693359 C46.16669922 575.14359375 47.01748047 574.93025391 47.89404297 574.71044922 C50.38145896 574.07142747 52.84732108 573.37725879 55.31591797 572.66943359 C56.08967773 572.47720215 56.8634375 572.2849707 57.66064453 572.08691406 C60.12262171 571.44394873 60.12262171 571.44394873 63.31591797 569.66943359 C64.43169967 566.91358723 64.81530272 565.284647 65.06591797 562.41943359 C65.27577551 560.8593921 65.48677077 559.29950336 65.69873047 557.73974609 C65.84810059 556.49499512 65.84810059 556.49499512 66.00048828 555.22509766 C69.87993302 523.79318781 79.50874275 493.26196121 88.71435547 463.06787109 C88.93280121 462.35049271 89.15124695 461.63311432 89.37631226 460.89399719 C90.73447228 456.46843848 92.19250429 452.09298481 93.75112915 447.73355103 C94.49186527 445.38306944 94.49186527 445.38306944 94.31591797 441.66943359 C92.78221435 439.8318963 92.78221435 439.8318963 90.69091797 438.23193359 C90.01802734 437.67634766 89.34513672 437.12076172 88.65185547 436.54833984 C87.88099609 435.92830078 87.11013672 435.30826172 86.31591797 434.66943359 C85.47383789 433.83831055 84.63175781 433.0071875 83.76416016 432.15087891 C79.81491287 428.87552509 75.78884694 428.5664919 70.80810547 428.08740234 C69.42705124 427.93154411 69.42705124 427.93154411 68.01809692 427.77253723 C66.0675205 427.55689112 64.11577532 427.35159676 62.16308594 427.15600586 C59.24598101 426.86247427 56.33422266 426.53561006 53.42138672 426.20263672 C43.99563745 425.16635493 34.62187437 424.46632464 25.13623047 424.40771484 C24.30421112 424.39918991 23.47219177 424.39066498 22.61495972 424.38188171 C17.13590875 424.37572368 17.13590875 424.37572368 12.31591797 426.66943359 Z M128.56591797 428.41943359 C127.52951172 428.81775391 127.52951172 428.81775391 126.47216797 429.22412109 C122.04228691 430.93945098 117.67245587 432.77627838 113.31591797 434.66943359 C117.04948498 435.91395593 118.05205257 435.24546771 121.64013672 433.79833984 C122.66816406 433.3890625 123.69619141 432.97978516 124.75537109 432.55810547 C125.82722656 432.12046875 126.89908203 431.68283203 128.00341797 431.23193359 C129.086875 430.79816406 130.17033203 430.36439453 131.28662109 429.91748047 C133.96654576 428.84314944 136.64264392 427.76018506 139.31591797 426.66943359 C135.16256373 425.28498218 132.45005361 426.87428474 128.56591797 428.41943359 Z M443.31591797 465.66943359 C442.74486328 466.20310547 442.17380859 466.73677734 441.58544922 467.28662109 C427.34980311 480.36802563 411.66760558 491.24685039 394.82373047 500.69287109 C383.45738594 507.06942204 372.52364556 514.08670889 361.61669922 521.21240234 C336.73250454 537.46208128 311.43200022 553.08102665 284.85107422 566.43115234 C283.98184326 566.87241455 283.1126123 567.31367676 282.21704102 567.76831055 C280.58623158 568.59214749 278.94871436 569.40289843 277.3034668 570.19750977 C272.42053266 572.66832075 269.94561463 574.84136618 267.31591797 579.66943359 C265.00591797 579.33943359 262.69591797 579.00943359 260.31591797 578.66943359 C259.98591797 579.65943359 259.65591797 580.64943359 259.31591797 581.66943359 C260.16154297 582.35005859 261.00716797 583.03068359 261.87841797 583.73193359 C264.31591797 586.66943359 264.31591797 586.66943359 264.19091797 590.10693359 C263.75779297 591.87037109 263.75779297 591.87037109 263.31591797 593.66943359 C262.83378987 596.44378473 262.38733579 599.22314221 261.94238281 602.00366211 C260.24526611 612.4555129 258.59472838 622.44345042 254.36669922 632.20849609 C253.44487346 634.36741888 252.80496449 636.38005098 252.31591797 638.66943359 C260.71808498 634.01334797 260.71808498 634.01334797 268.50341797 628.41943359 C272.49696817 625.19606807 276.68284513 622.42545498 281.00341797 619.66943359 C306.93123565 603.08714858 331.14254875 584.94999429 354.43188477 564.85473633 C357.83030686 561.92590725 361.26684701 559.05610742 364.75341797 556.23193359 C374.33260017 548.43917744 383.62028871 540.29158399 392.75341797 531.98193359 C393.31528809 531.47686279 393.8771582 530.97179199 394.45605469 530.45141602 C395.78223025 529.2324337 397.05503247 527.95583449 398.31591797 526.66943359 C398.31591797 526.00943359 398.31591797 525.34943359 398.31591797 524.66943359 C399.17636719 524.31365234 399.17636719 524.31365234 400.05419922 523.95068359 C402.80913893 522.3900269 404.42772872 520.55893379 406.50341797 518.16943359 C407.29103516 517.27095703 408.07865234 516.37248047 408.89013672 515.44677734 C409.69064453 514.53025391 410.49115234 513.61373047 411.31591797 512.66943359 C412.81397358 511.02183026 414.3139365 509.37595884 415.81591797 507.73193359 C432.41286725 489.8149158 432.41286725 489.8149158 444.31591797 468.66943359 C443.98591797 467.67943359 443.65591797 466.68943359 443.31591797 465.66943359 Z M103.31591797 466.66943359 C102.03056887 470.76173597 100.74891689 474.85517194 99.47070312 478.94970703 C99.03519923 480.34292978 98.59868034 481.73583568 98.16113281 483.12841797 C97.53298133 485.12824716 96.90846933 487.12918136 96.28466797 489.13037109 C95.90761719 490.33483887 95.53056641 491.53930664 95.14208984 492.78027344 C94.22427272 495.48909386 94.22427272 495.48909386 94.31591797 497.66943359 C95.13576172 497.93498047 95.95560547 498.20052734 96.80029297 498.47412109 C98.41677734 499.00392578 98.41677734 499.00392578 100.06591797 499.54443359 C101.66693359 500.06650391 101.66693359 500.06650391 103.30029297 500.59912109 C106.31591797 501.66943359 106.31591797 501.66943359 108.51904297 502.80224609 C110.43368893 503.88675337 110.43368893 503.88675337 113.31591797 503.66943359 C113.74646484 503.23115234 114.17701172 502.79287109 114.62060547 502.34130859 C116.93955595 500.05441734 119.4464006 499.17953783 122.44091797 497.91943359 C128.46594562 495.22296474 133.40293919 492.06133886 138.31591797 487.66943359 C138.87666016 487.19248047 139.43740234 486.71552734 140.01513672 486.22412109 C141.64354327 484.2778574 141.79797357 482.98835523 142.00341797 480.48193359 C142.10654297 479.22380859 142.20966797 477.96568359 142.31591797 476.66943359 C133.79126289 469.80235034 122.403028 469.26399782 111.88232422 468.09912109 C108.97326271 467.74863176 106.18020397 467.26458598 103.31591797 466.66943359 Z M90.31591797 512.66943359 C89.8122404 514.12650086 89.31309241 515.58513455 88.81591797 517.04443359 C88.53748047 517.85654297 88.25904297 518.66865234 87.97216797 519.50537109 C87.21918492 521.61152601 87.21918492 521.61152601 87.31591797 523.66943359 C87.92177734 523.89115234 88.52763672 524.11287109 89.15185547 524.34130859 C97.44421558 527.86237227 102.06326169 533.63052047 107.31591797 540.66943359 C108.30978516 541.93013672 108.30978516 541.93013672 109.32373047 543.21630859 C116.63338299 552.89922492 121.16899001 564.4007066 120.31591797 576.66943359 C119.33697633 580.22105278 117.95397696 583.38061747 116.31591797 586.66943359 C115.98591797 587.65943359 115.65591797 588.64943359 115.31591797 589.66943359 C113.55419922 590.72802734 113.55419922 590.72802734 111.31591797 591.66943359 C110.54634766 592.01103516 109.77677734 592.35263672 108.98388672 592.70458984 C104.04126808 594.75169016 99.65190948 596.20543433 94.31591797 596.66943359 C95.89811702 600.05757702 97.85087025 603.07183299 99.94091797 606.16943359 C102.6675951 610.22035714 105.378065 614.28016916 108.06591797 618.35693359 C112.31838568 624.73563516 116.73879347 630.99090182 121.17919922 637.23974609 C123.23785553 640.13805876 125.27619456 643.04887751 127.29638672 645.97412109 C139.7605521 663.96716208 153.45612549 680.76085638 169.78466797 695.39208984 C171.69025717 697.10653198 173.53199872 698.83127356 175.31591797 700.66943359 C180.36735005 699.09939389 183.93081967 696.04692277 187.94091797 692.73193359 C188.64804932 692.15072754 189.35518066 691.56952148 190.08374023 690.97070312 C199.91244577 682.79034527 208.47941774 673.78353733 216.31591797 663.66943359 C216.78143066 663.06969727 217.24694336 662.46996094 217.7265625 661.85205078 C230.88815028 644.82041619 242.62535804 628.3614297 246.31591797 606.66943359 C246.50412109 605.63431641 246.69232422 604.59919922 246.88623047 603.53271484 C247.25776491 601.05694442 247.42144941 598.79025728 247.37841797 596.29443359 C247.34748047 594.50005859 247.34748047 594.50005859 247.31591797 592.66943359 C242.66470859 590.28097472 238.02329403 588.09731756 233.17944336 586.13500977 C195.84228488 570.88157915 159.61062926 550.73789498 125.44091797 529.41943359 C120.35250862 526.25285627 115.17200223 523.27940967 109.94091797 520.35693359 C108.81580811 519.72513184 108.81580811 519.72513184 107.66796875 519.08056641 C99.45706286 514.32304153 99.45706286 514.32304153 90.31591797 512.66943359 Z M84.31591797 536.66943359 C81.67109032 549.59344957 79.92109589 562.58026575 78.31591797 575.66943359 C85.89957402 579.81308071 91.5661601 582.03537518 100.31591797 580.66943359 C103.66612565 579.37845851 103.66612565 579.37845851 105.31591797 576.66943359 C106.67883962 568.15117326 102.97750862 559.85292947 98.13232422 553.04052734 C91.63466311 544.49763614 91.63466311 544.49763614 84.31591797 536.66943359 Z M-44.68408203 564.66943359 C-45.96136227 566.69970481 -45.96136227 566.69970481 -47.05908203 569.10693359 C-50.9300002 575.90798982 -56.75079052 579.82637129 -62.93847656 584.37744141 C-75.86119146 593.94205781 -86.80764624 605.02215609 -96.68408203 617.66943359 C-98.47515332 619.96156616 -100.26687613 622.25318807 -102.05908203 624.54443359 C-102.51919678 625.13377686 -102.97931152 625.72312012 -103.45336914 626.33032227 C-107.0945117 630.97285825 -110.86243512 635.49346012 -114.69482422 639.97875977 C-117.61677302 643.39902947 -120.47950325 646.85925982 -123.30908203 650.35693359 C-126.88630382 654.75526145 -130.63005744 658.96242213 -134.44580078 663.15380859 C-137.48082625 666.56490179 -140.33968322 670.10585397 -143.20751953 673.65771484 C-145.06164932 675.91250044 -146.935939 678.13281589 -148.84814453 680.33740234 C-149.39043701 680.96291992 -149.93272949 681.5884375 -150.49145508 682.23291016 C-151.55709928 683.45799401 -152.62613931 684.6801344 -153.69897461 685.89892578 C-156.112877 688.67608726 -158.2784349 691.24369479 -159.68408203 694.66943359 C-160.34408203 694.66943359 -161.00408203 694.66943359 -161.68408203 694.66943359 C-163.819958 696.7059665 -165.30650665 698.1291846 -166.68408203 700.66943359 C-166.63327663 704.45617102 -166.63327663 704.45617102 -165.68408203 707.66943359 C-167.33408203 707.00943359 -168.98408203 706.34943359 -170.68408203 705.66943359 C-176.46989051 711.9142415 -182.06274677 718.23406418 -187.40673828 724.86474609 C-189.7695733 727.7747213 -192.19372973 730.62608237 -194.62158203 733.48193359 C-212.7369487 755.23717301 -225.68681359 779.96344894 -237.80908203 805.41943359 C-246.35897952 823.37366885 -255.85902706 840.56372936 -265.94238281 857.70019531 C-279.4098424 880.65943887 -291.80822871 903.25199146 -300.62158203 928.41943359 C-301.02376953 929.563396 -301.42595703 930.7073584 -301.84033203 931.88598633 C-302.21029297 932.96436768 -302.58025391 934.04274902 -302.96142578 935.15380859 C-303.29392334 936.1202832 -303.6264209 937.08675781 -303.96899414 938.08251953 C-304.86170419 940.86468101 -304.86170419 940.86468101 -304.68408203 944.66943359 C-296.6113488 942.43034025 -288.85033121 939.54887612 -281.05908203 936.48193359 C-280.44457184 936.24187592 -279.83006165 936.00181824 -279.19692993 935.75448608 C-270.4694703 932.33806049 -262.06852536 928.60654135 -253.88330078 924.03271484 C-250.21607378 922.47000151 -247.63287348 922.34036764 -243.68408203 922.66943359 C-241.24658203 923.66943359 -241.24658203 923.66943359 -239.68408203 924.66943359 C-239.29220703 924.03005859 -238.90033203 923.39068359 -238.49658203 922.73193359 C-236.68408203 920.66943359 -236.68408203 920.66943359 -234.30908203 919.73193359 C-230.77495949 919.64778782 -229.4683632 920.49648137 -226.68408203 922.66943359 C-225.51487362 925.15783524 -224.66989595 927.35356041 -223.88720703 929.95849609 C-223.65226532 930.68585968 -223.41732361 931.41322327 -223.17526245 932.16262817 C-222.67307502 933.72385568 -222.17905047 935.28772809 -221.69244385 936.85388184 C-220.67104473 940.14093737 -219.61081612 943.41502157 -218.55239868 946.69030762 C-218.02008094 948.33882536 -217.48978876 949.98799854 -216.96151733 951.63781738 C-214.72207215 958.61984891 -212.31911826 965.5294903 -209.80908203 972.41943359 C-209.26828003 973.90745483 -209.26828003 973.90745483 -208.71655273 975.42553711 C-205.7581466 983.52631084 -202.74771284 991.60787959 -199.68408203 999.66943359 C-199.02408203 999.66943359 -198.36408203 999.66943359 -197.68408203 999.66943359 C-197.48363281 999.05237549 -197.28318359 998.43531738 -197.07666016 997.79956055 C-190.35203205 977.17393675 -190.35203205 977.17393675 -186.71899414 968.10644531 C-175.74406945 940.60162526 -169.87450412 911.31247216 -163.26391602 882.52954102 C-160.15337032 869.00392136 -156.94742181 855.51215539 -153.48486328 842.07177734 C-153.16770859 840.83709213 -152.85055389 839.60240692 -152.52378845 838.33030701 C-139.90667881 789.82895378 -122.17261312 741.61852086 -94.12597656 699.83251953 C-91.41450204 695.76484864 -88.77624089 691.64930484 -86.12158203 687.54443359 C-82.66615932 682.21425486 -79.18318238 676.90698541 -75.62329102 671.64599609 C-71.30437618 665.25733799 -67.3594834 658.75009389 -63.58251953 652.02880859 C-52.2931299 632.05169937 -39.58186943 611.10661937 -23.74658203 594.41943359 C-19.87946278 590.25588011 -18.41180615 587.28330536 -17.68408203 581.66943359 C-18.32474609 581.30591797 -18.96541016 580.94240234 -19.62548828 580.56787109 C-28.16517247 575.60441828 -34.13128759 570.83530777 -39.68408203 562.66943359 C-41.67077864 562.66943359 -43.02739727 563.65494686 -44.68408203 564.66943359 Z M-81.09814453 572.85693359 C-81.73708649 572.99480789 -82.37602844 573.13268219 -83.03433228 573.2747345 C-85.12807268 573.7303775 -87.21862141 574.19898786 -89.30908203 574.66943359 C-90.02028198 574.8270517 -90.73148193 574.9846698 -91.4642334 575.14706421 C-114.2494356 579.52149774 -114.2494356 579.52149774 -135.68408203 587.66943359 C-134.95189453 588.38615234 -134.21970703 589.10287109 -133.46533203 589.84130859 C-126.70935601 596.71114938 -120.95057948 604.01649701 -116.68408203 612.66943359 C-116.12527344 613.78511719 -116.12527344 613.78511719 -115.55517578 614.92333984 C-115.26771484 615.49955078 -114.98025391 616.07576172 -114.68408203 616.66943359 C-113.65142693 615.43412801 -112.61893654 614.19868447 -111.5871582 612.96264648 C-110.68045839 611.87662123 -109.77304925 610.79118786 -108.86499023 609.70629883 C-106.70437813 607.11918602 -104.5672388 604.52203771 -102.47314453 601.88037109 C-93.51464943 590.59066908 -83.72095031 580.65380914 -71.68408203 572.66943359 C-75.40724428 571.42837951 -77.27472687 572.02407855 -81.09814453 572.85693359 Z M53.31591797 588.04443359 C51.92085698 588.51288581 50.52503807 588.97908782 49.12841797 589.44287109 C48.51611328 589.65347168 47.90380859 589.86407227 47.27294922 590.08105469 C43.19769615 591.30627424 39.25851231 591.81213441 35.01513672 591.98583984 C34.03867187 592.02773437 33.06220703 592.06962891 32.05615234 592.11279297 C31.04875 592.15210938 30.04134766 592.19142578 29.00341797 592.23193359 C27.97667969 592.27511719 26.94994141 592.31830078 25.89208984 592.36279297 C23.36682228 592.46850184 20.84146235 592.57059827 18.31591797 592.66943359 C18.25017578 593.72904297 18.18443359 594.78865234 18.11669922 595.88037109 C17.16941491 600.3626432 16.01242766 601.46873032 12.50341797 604.29443359 C8.08871102 607.90705937 4.16106798 611.13398355 2.31591797 616.66943359 C2.20530418 618.37885565 2.14973506 620.09209257 2.12646484 621.80493164 C2.10974731 622.85420334 2.09302979 623.90347504 2.07580566 624.98454285 C2.06223022 626.12192398 2.04865479 627.25930511 2.03466797 628.43115234 C2.01625854 629.60974319 1.99784912 630.78833405 1.97888184 632.00263977 C1.92007029 635.78735293 1.86739248 639.57211401 1.81591797 643.35693359 C1.42090236 671.87373802 1.42090236 671.87373802 0.52099609 684.35327148 C0.20762561 689.42054684 0.24373878 694.47023688 0.31591797 699.54443359 C0.34132969 701.43760684 0.36239589 703.3308451 0.37841797 705.22412109 C0.39001953 706.03349121 0.40162109 706.84286133 0.41357422 707.67675781 C0.31591797 709.66943359 0.31591797 709.66943359 -0.68408203 711.66943359 C-0.83513734 713.59874953 -0.92428077 715.53302101 -0.98510742 717.46728516 C-1.02478134 718.69872253 -1.06445526 719.93015991 -1.10533142 721.19891357 C-1.14371654 722.56928365 -1.18167107 723.93966585 -1.21923828 725.31005859 C-1.2502296 726.36452053 -1.2502296 726.36452053 -1.281847 727.44028473 C-1.77632845 744.32988223 -1.9206898 761.22287112 -2.07278442 778.11828613 C-2.31174406 804.40315991 -2.70611828 830.65275678 -3.74658203 856.91943359 C-5.52109346 902.47380138 -5.19050809 948.1579603 -4.24658203 993.73193359 C-4.22711517 994.69588043 -4.20764832 995.65982727 -4.18759155 996.65298462 C-4.13145742 999.29538308 -4.0680392 1001.93746109 -4.00048828 1004.57958984 C-3.98376068 1005.32561462 -3.96703308 1006.0716394 -3.94979858 1006.840271 C-3.83333841 1010.86512058 -3.44534433 1014.71528165 -2.68408203 1018.66943359 C-1.5520885 1017.76141739 -0.4287584 1016.84259534 0.69091797 1015.91943359 C1.31740234 1015.40896484 1.94388672 1014.89849609 2.58935547 1014.37255859 C4.39904115 1012.58743879 5.31709252 1010.98993715 6.31591797 1008.66943359 C6.97591797 1008.66943359 7.63591797 1008.66943359 8.31591797 1008.66943359 C9.75058813 1007.28985943 9.75058813 1007.28985943 11.25341797 1005.41943359 C14.36158299 1001.75971527 17.5578338 998.19560203 20.81591797 994.66943359 C23.90305775 991.32685303 26.94266612 987.95902976 29.87841797 984.48193359 C33.96169766 979.77643985 38.64394688 975.77489322 43.31591797 971.66943359 C45.00426144 970.1286907 46.69177158 968.5870341 48.37841797 967.04443359 C50.02181281 965.58335287 51.66758089 964.12493637 53.31591797 962.66943359 C54.46060547 961.61949219 54.46060547 961.61949219 55.62841797 960.54833984 C56.37091797 959.90767578 57.11341797 959.26701172 57.87841797 958.60693359 C58.83941406 957.75421875 58.83941406 957.75421875 59.81982422 956.88427734 C63.65534136 955.01753895 67.13461996 954.98651041 71.31591797 955.66943359 C74.03875977 956.79883504 76.27164526 958.35095708 78.62841797 960.10693359 C79.2686792 960.5592334 79.90894043 961.0115332 80.56860352 961.47753906 C82.50149532 962.85286131 84.4102237 964.25674726 86.31591797 965.66943359 C87.40949161 966.46524891 88.50323124 967.26083621 89.59716797 968.05615234 C95.16835351 972.16992723 100.5923778 976.45596831 105.97998047 980.80615234 C109.36639662 983.5073572 112.83426207 986.09305215 116.31591797 988.66943359 C115.70771208 980.83567146 114.70759972 973.12346219 113.45263672 965.36865234 C113.26485657 964.19915039 113.07707642 963.02964844 112.88360596 961.82470703 C112.26453991 958.0008161 111.63584925 954.17863609 111.00341797 950.35693359 C110.89498188 949.70006687 110.78654579 949.04320015 110.67482376 948.36642838 C105.50765701 917.11419803 98.68556842 886.29926656 91.37724304 855.48127747 C81.15950991 812.39104771 75.0148027 769.98060914 74.10888672 725.63427734 C74.05214015 722.89342284 73.99498088 720.15257788 73.93728638 717.41174316 C73.89799663 715.53976701 73.85932206 713.66777785 73.82125854 711.79577637 C73.56914843 699.64435916 73.08856602 687.54425988 72.25341797 675.41943359 C71.51652513 664.51288321 71.10024185 653.65973763 71.06591797 642.73193359 C71.05681396 641.46381836 71.04770996 640.19570312 71.03833008 638.88916016 C71.07035876 629.19165918 72.15552477 620.83340694 75.94091797 611.85693359 C78.27732128 606.43819923 78.27732128 606.43819923 78.31591797 600.66943359 C76.73415668 598.05014171 76.73415668 598.05014171 74.56591797 595.60693359 C73.86982422 594.77033203 73.17373047 593.93373047 72.45654297 593.07177734 C71.75013672 592.27900391 71.04373047 591.48623047 70.31591797 590.66943359 C69.67138672 589.92822266 69.02685547 589.18701172 68.36279297 588.42333984 C63.44114846 584.20612919 58.92911199 586.09742164 53.31591797 588.04443359 Z M-4.68408203 587.66943359 C-4.76658203 588.51505859 -4.84908203 589.36068359 -4.93408203 590.23193359 C-6.36979245 596.81227301 -9.66094599 600.74540804 -14.18408203 605.54443359 C-25.22306724 617.42510096 -33.61930444 631.4852451 -42.14892578 645.20947266 C-43.74279733 647.76352 -45.35168249 650.30752769 -46.96533203 652.84912109 C-47.50416016 653.69812988 -48.04298828 654.54713867 -48.59814453 655.421875 C-49.62347661 657.03658362 -50.64947284 658.65087078 -51.67626953 660.26464844 C-52.59562748 661.71638321 -53.5087519 663.17209092 -54.41455078 664.63232422 C-55.25221495 665.97645303 -56.10876946 667.30901541 -56.98486328 668.62841797 C-58.31366851 670.63827247 -58.31366851 670.63827247 -59.68408203 673.66943359 C-58.89113458 677.13557512 -56.7703345 678.62265619 -53.93408203 680.60693359 C-42.90824071 688.39881752 -34.35625843 698.06283422 -31.68408203 711.66943359 C-27.56918009 710.25493605 -24.16536611 708.16008093 -20.55126953 705.79052734 C-18.68408203 704.66943359 -18.68408203 704.66943359 -15.68408203 703.66943359 C-13.85099563 681.76044895 -13.33058068 659.89470394 -13.11401367 637.91479492 C-13.08529162 635.69238275 -13.05656462 633.46997063 -13.02783203 631.24755859 C-13.02263046 630.24325302 -13.01742889 629.23894745 -13.0120697 628.20420837 C-12.88769032 619.34179441 -12.68225803 610.11309831 -6.99658203 602.91943359 C-6.29146484 602.02095703 -5.58634766 601.12248047 -4.85986328 600.19677734 C-1.96603914 596.83536941 1.04463495 593.66470211 4.31591797 590.66943359 C1.30704016 589.08784397 -1.3208024 588.2299802 -4.68408203 587.66943359 Z M-157.80908203 593.98193359 C-158.47689697 594.20905029 -159.14471191 594.43616699 -159.83276367 594.67016602 C-161.16707644 595.1239711 -162.50082913 595.57942669 -163.83398438 596.03662109 C-166.25850172 596.86590969 -168.68950533 597.67512027 -171.12158203 598.48193359 C-172.29720703 598.87380859 -173.47283203 599.26568359 -174.68408203 599.66943359 C-175.01408203 601.97943359 -175.34408203 604.28943359 -175.68408203 606.66943359 C-180.69836542 606.96439144 -183.73509609 606.89097476 -187.68408203 603.66943359 C-189.50718694 601.40938618 -191.07980326 599.09877002 -192.68408203 596.66943359 C-194.25592177 599.68623811 -195.51209105 602.75134921 -196.74658203 605.91943359 C-201.4713298 617.25328602 -207.11382876 627.81247146 -215.73876953 636.65380859 C-217.57805877 638.55957817 -219.14367548 640.51867728 -220.68408203 642.66943359 C-219.61158203 643.12318359 -218.53908203 643.57693359 -217.43408203 644.04443359 C-208.89495461 648.3215809 -201.35976176 655.35866307 -195.32861328 662.68115234 C-193.50663034 664.88397732 -191.56814868 666.95123293 -189.62158203 669.04443359 C-185.59635572 673.55331113 -182.63227225 678.41661091 -179.68408203 683.66943359 C-178.68854284 685.33876864 -177.68971423 687.00615922 -176.68408203 688.66943359 C-167.65252384 679.73973508 -158.95448372 670.46870721 -151.02392578 660.54443359 C-148.15350681 657.01750811 -145.17443427 653.59469163 -142.18408203 650.16943359 C-134.39341255 641.22755006 -126.90835912 632.07725425 -119.68408203 622.66943359 C-121.37629585 621.54129105 -123.07893245 620.42745187 -124.81298828 619.36474609 C-135.35297381 612.56366394 -142.82637042 603.22567385 -147.68408203 591.66943359 C-151.36601679 591.66943359 -154.37527171 592.79335573 -157.80908203 593.98193359 Z M89.31591797 618.66943359 C85.51624786 627.35581855 85.97560728 635.95276876 86.12841797 645.23193359 C86.14349158 646.82892619 86.15717525 648.42593253 86.16943359 650.02294922 C86.20222872 653.90545484 86.25386223 657.78728993 86.31591797 661.66943359 C86.7494458 661.27473877 87.18297363 660.88004395 87.62963867 660.47338867 C91.38328777 657.1424134 94.94564549 654.54442854 99.50341797 652.35693359 C100.50759766 651.86580078 101.51177734 651.37466797 102.54638672 650.86865234 C104.82791934 649.88073906 106.88955928 649.16165433 109.31591797 648.66943359 C108.71285413 645.68037023 107.80581722 643.62074044 106.05810547 641.13037109 C105.60032715 640.47166016 105.14254883 639.81294922 104.67089844 639.13427734 C104.18250488 638.44462891 103.69411133 637.75498047 103.19091797 637.04443359 C102.6960791 636.33673828 102.20124023 635.62904297 101.69140625 634.89990234 C100.69880792 633.48125872 99.70388765 632.06423662 98.70654297 630.64892578 C97.48189714 628.90569748 96.27267289 627.1516569 95.06591797 625.39599609 C94.44716797 624.49623047 93.82841797 623.59646484 93.19091797 622.66943359 C92.65208984 621.88568359 92.11326172 621.10193359 91.55810547 620.29443359 C91.14818359 619.75818359 90.73826172 619.22193359 90.31591797 618.66943359 C89.98591797 618.66943359 89.65591797 618.66943359 89.31591797 618.66943359 Z M-234.37597656 660.00512695 C-252.06995764 668.94027256 -271.54776614 674.27353843 -290.55908203 679.66943359 C-338.29819078 693.24087755 -385.47739906 709.40534701 -432.14770508 726.26806641 C-450.70736409 732.954101 -469.47285571 739.18080696 -488.33740234 744.94970703 C-489.95292905 745.445189 -491.56677865 745.94616157 -493.17919922 746.45166016 C-507.03626759 750.78167147 -521.04584593 754.276973 -535.18408203 757.54443359 C-536.04191284 757.74356354 -536.89974365 757.94269348 -537.78356934 758.14785767 C-540.25960769 758.72042597 -542.73707736 759.28623052 -545.21533203 759.84912109 C-545.95096375 760.01859756 -546.68659546 760.18807404 -547.44451904 760.36268616 C-552.17717536 761.42398769 -556.86296992 762.13292548 -561.68408203 762.66943359 C-561.61406982 763.2126123 -561.54405762 763.75579102 -561.47192383 764.31542969 C-560.33585721 774.61134729 -560.48612749 784.95025061 -560.49658203 795.29443359 C-560.49685394 796.297435 -560.49712585 797.3004364 -560.49740601 798.33383179 C-560.52183668 817.89967442 -560.89839457 837.27245575 -565.09814453 856.46240234 C-565.67446403 859.61679106 -565.72589893 862.47267077 -565.68408203 865.66943359 C-552.34552443 862.69249424 -539.01137972 859.69641261 -525.68408203 856.66943359 C-524.98593384 856.51093933 -524.28778564 856.35244507 -523.56848145 856.18914795 C-511.76152846 853.50357303 -500.04610848 850.74125988 -488.56958008 846.84838867 C-481.95319276 844.62713345 -475.19777568 843.00915784 -468.42507935 841.34649658 C-459.33407049 839.10089583 -450.25829926 836.79301025 -441.17980099 834.49739647 C-437.73179112 833.62559751 -434.28339536 832.75540027 -430.83398438 831.88916016 C-393.63209951 822.63600995 -393.63209951 822.63600995 -357.30908203 810.48193359 C-355.8396065 809.92958779 -354.37012388 809.37726083 -352.90063477 808.82495117 C-340.55947486 804.14959517 -328.46744749 798.94696903 -316.39892578 793.61474609 C-305.67304754 788.87966695 -294.79530429 784.53083671 -283.78735352 780.49658203 C-283.15514893 780.26487305 -282.52294434 780.03316406 -281.87158203 779.79443359 C-281.24904541 779.5665918 -280.62650879 779.33875 -279.98510742 779.10400391 C-272.81206756 776.42702723 -265.82800794 773.30450669 -258.83911133 770.18359375 C-244.22463601 763.70436989 -244.22463601 763.70436989 -236.92236328 763.42333984 C-234.39547518 763.19591443 -233.12756697 763.07055401 -231.23242188 761.35644531 C-229.94599406 759.49920794 -228.9024206 757.61717402 -227.87158203 755.60693359 C-227.03698492 754.1357513 -226.19560515 752.66840001 -225.34814453 751.20458984 C-224.91663086 750.45064941 -224.48511719 749.69670898 -224.04052734 748.91992188 C-221.84718072 745.28092454 -219.32434669 741.91755416 -216.74658203 738.54443359 C-216.24368652 737.88483643 -215.74079102 737.22523926 -215.22265625 736.5456543 C-213.71635238 734.58176052 -212.2008683 732.62523753 -210.68408203 730.66943359 C-209.72046627 729.41428214 -208.7569232 728.15907488 -207.79345703 726.90380859 C-202.37045144 719.88104924 -196.69040052 713.20538992 -190.68408203 706.66943359 C-188.33717323 704.01452012 -186.0079635 701.34451258 -183.68408203 698.66943359 C-186.45573561 695.79583414 -189.33982368 693.29782864 -192.49658203 690.85693359 C-196.25792212 687.88310688 -199.6759133 684.79654825 -203.00439453 681.35302734 C-204.66386675 679.68969588 -206.38845053 678.18377518 -208.18408203 676.66943359 C-213.28155653 672.30736549 -217.91276568 667.46006843 -222.58056641 662.64794922 C-223.21027344 662.00664063 -223.83998047 661.36533203 -224.48876953 660.70458984 C-225.0557959 660.1207251 -225.62282227 659.53686035 -226.20703125 658.93530273 C-229.14919218 656.41379787 -231.31155421 658.43780516 -234.37597656 660.00512695 Z M113.37841797 660.35693359 C105.48108742 667.1722168 97.58626601 669.66943359 87.31591797 669.66943359 C87.18267798 676.12417085 87.38983219 682.53815862 87.75341797 688.98193359 C88.67291264 705.52615047 88.91930769 722.10617222 89.31591797 738.66943359 C90.39873047 737.58662109 90.39873047 737.58662109 91.50341797 736.48193359 C92.43154297 735.55380859 93.35966797 734.62568359 94.31591797 733.66943359 C95.13979004 732.8312207 95.96366211 731.99300781 96.8125 731.12939453 C104.5197596 723.55592586 113.01276346 717.64152026 122.44091797 712.41943359 C123.52171631 711.81534668 124.60251465 711.21125977 125.71606445 710.58886719 C134.31373877 705.92172227 142.76185604 702.69326514 152.31591797 700.66943359 C149.12097066 696.87003679 145.86076068 693.16878273 142.46679688 689.54516602 C133.73674389 680.19284191 126.20639966 670.04816129 118.81201172 659.61865234 C118.31830078 658.97541016 117.82458984 658.33216797 117.31591797 657.66943359 C115.77531852 657.55693135 115.77531852 657.55693135 113.37841797 660.35693359 Z M-24.68408203 725.66943359 C-26.24277913 728.44858539 -26.97017225 731.34221089 -27.74658203 734.41943359 C-28.24063664 736.15346197 -28.7380834 737.88652713 -29.23876953 739.61865234 C-29.48079102 740.47894043 -29.7228125 741.33922852 -29.97216797 742.22558594 C-33.80716218 755.39029514 -39.71855364 767.98933291 -45.09814453 780.56787109 C-47.37484164 785.90372219 -49.56012444 791.27110438 -51.68408203 796.66943359 C-46.05976412 795.89366561 -40.86049004 794.25952114 -35.48876953 792.48583984 C-28.94500506 790.45294243 -23.94256068 790.27430681 -16.68408203 789.66943359 C-16.68408203 767.22943359 -16.68408203 744.78943359 -16.68408203 721.66943359 C-19.66627723 721.66943359 -22.48367112 723.8329392 -24.68408203 725.66943359 Z M-561.68408203 745.66943359 C-561.68408203 746.32943359 -561.68408203 746.98943359 -561.68408203 747.66943359 C-560.69408203 747.33943359 -559.70408203 747.00943359 -558.68408203 746.66943359 C-559.67408203 746.33943359 -560.66408203 746.00943359 -561.68408203 745.66943359 Z " fill="#000000" transform="translate(944.68408203125,502.33056640625)"/>
<path d="M0 0 C2 0 2 0 3.33984375 1.29296875 C4.13068359 2.23076172 4.13068359 2.23076172 4.9375 3.1875 C5.56398438 3.92484375 6.19046875 4.6621875 6.8359375 5.421875 C7.55007813 6.27265625 8.26421875 7.1234375 9 8 C10.19496094 9.39992188 10.19496094 9.39992188 11.4140625 10.828125 C21.54459742 22.70333138 31.50560698 34.72389288 41.09545898 47.04052734 C44.0130615 50.77734223 47.00923114 54.43466578 50.0625 58.0625 C55.23709531 64.23126952 60.14831033 70.57749101 65 77 C65.45600586 77.60295898 65.91201172 78.20591797 66.38183594 78.82714844 C86.93218792 106.03485536 86.93218792 106.03485536 96.1796875 119.44140625 C98.63292907 122.88963206 101.19515047 126.25169993 103.75 129.625 C107.85715953 135.05158453 111.80725197 140.55372003 115.625 146.1875 C119.30289271 151.6124081 123.1242746 156.84375562 127.16503906 162.00561523 C132.17250137 168.43971337 136.80381156 175.13755637 141.47216797 181.81933594 C142.96495824 183.94998514 144.4667924 186.07388767 145.97265625 188.1953125 C167.67635885 218.77585093 188.31317508 250.08539905 208 282 C208.59361328 282.96196289 209.18722656 283.92392578 209.79882812 284.91503906 C211.47851268 287.64663779 213.14778512 290.38425795 214.8125 293.125 C215.31015869 293.93582031 215.80781738 294.74664063 216.32055664 295.58203125 C218.76360006 299.63613254 220.72796631 303.39714977 222 308 C215.57164403 303.00016758 210.59228174 296.97851575 205.43945312 290.73339844 C204.05177032 289.06234214 202.64762447 287.40727365 201.234375 285.7578125 C196.10161513 279.7656223 191.12233081 273.68153526 186.27661133 267.45483398 C182.12768921 262.13103501 177.87418414 256.89608517 173.59033203 251.68041992 C170.42515926 247.81159798 167.37416459 243.87777585 164.39135742 239.86669922 C162.48038863 237.30286919 160.52104485 234.77760511 158.5625 232.25 C147.64674393 218.09632135 137.01177072 203.74025273 126.59277344 189.21777344 C123.90315635 185.47275786 121.20088856 181.73689017 118.5 178 C117.41660726 176.50004291 116.33327389 175.00004293 115.25 173.5 C114.71375 172.7575 114.1775 172.015 113.625 171.25 C108.75 164.5 108.75 164.5 107.1237793 162.24829102 C106.04453876 160.75397045 104.96527458 159.25966696 103.88598633 157.76538086 C101.11483531 153.9286279 98.34414313 150.09154488 95.57421875 146.25390625 C95.0121875 145.47539307 94.45015625 144.69687988 93.87109375 143.89477539 C92.75494478 142.34857889 91.63905637 140.80219426 90.5234375 139.25561523 C87.70036625 135.34427062 84.85960944 131.44725245 82 127.5625 C77.94657457 121.99963999 74.08440162 116.30911998 70.21240234 110.61938477 C66.07091146 104.54062959 61.86032769 98.51364411 57.625 92.5 C53.46246572 86.58051528 49.3873957 80.64024571 45.56640625 74.4921875 C43.78826227 71.66312051 41.93008149 68.89578564 40.0625 66.125 C36.62655837 60.99741662 33.38275852 55.77448443 30.171875 50.50390625 C28.26353704 47.39802472 26.27942054 44.34656879 24.28027344 41.29858398 C18.9867042 33.22252226 13.91975692 25.02175134 8.9375 16.75 C7.95414673 15.12433105 7.95414673 15.12433105 6.95092773 13.46582031 C6.33677002 12.44069336 5.7226123 11.41556641 5.08984375 10.359375 C4.54191162 9.44639648 3.99397949 8.53341797 3.42944336 7.59277344 C2.06205156 5.11255125 0.98806043 2.65117092 0 0 Z " fill="#000000" transform="translate(550,532)"/>
</svg>
